<svg width="53" height="58" fill="none" xmlns="http://www.w3.org/2000/svg"><path d="M26.5 6.444V0l15.692 15.333c.257.251.26.663.005.916l-2.319 2.312a.648.648 0 01-.908.006L26.5 6.444z" fill="#313C48"/><path d="M26.5 6.444V0L10.808 15.333a.643.643 0 00-.005.916l2.319 2.312c.25.25.655.252.908.006L26.5 6.444z" fill="#535D69"/><path d="M26.823 31.256l-7.603-7.278a.643.643 0 01-.01-.92l2-1.994a.648.648 0 01.899-.015l4.714 4.407v5.8z" fill="#DDD0A4"/><path d="M26.823 31.256l7.603-7.278a.643.643 0 00.01-.92l-2-1.994a.648.648 0 00-.899-.015l-4.714 4.407v5.8z" fill="#A89060"/><path fill-rule="evenodd" clip-rule="evenodd" d="M26.278 12.244l-3.2 3.19a.643.643 0 000 .912l3.2 3.19v-7.292z" fill="#DDD0A4"/><path fill-rule="evenodd" clip-rule="evenodd" d="M26.278 12.244l3.2 3.19a.643.643 0 010 .912l-3.2 3.19v-7.292z" fill="#A89060"/><path d="M26.216 34.8c-5.493 0-10.369 2.655-13.421 6.757 3.844-2.817 8.297-4.479 13.421-4.479 4.584 0 9.142 1.33 12.744 3.627-3.07-3.614-7.64-5.905-12.744-5.905z" fill="#313C48"/><path fill-rule="evenodd" clip-rule="evenodd" d="M12.795 41.556c3.052-4.1 7.928-6.756 13.421-6.756v2.278c-5.124 0-9.577 1.662-13.421 4.478z" fill="#535D69"/><path d="M1.95 49.373a4.64 4.64 0 01-.113.812 1.297 1.297 0 01-.258.517v.03h2.386v-3.806h-1.86l-.155 2.447zm-.958 2.183v1.076h-.89v-1.9h.39a.968.968 0 00.398-.506c.08-.224.133-.528.155-.913l.197-3.206h3.696v4.625h.682v1.9h-.886v-1.076H.992zm8.866-.824v.824H6.321v-5.45h3.537v.824h-2.56v1.473h2.42v.774h-2.42v1.555h2.56zm5.294.824h-.977v-4.63h-1.738l-.148 2.519c-.043.727-.185 1.269-.428 1.623-.242.353-.612.53-1.11.53a1.2 1.2 0 01-.355-.046v-.854c.075.018.154.027.235.027.25 0 .431-.106.545-.317.114-.214.183-.554.208-1.02l.178-3.281h3.59v5.449zm3.447-5.54c.795 0 1.425.253 1.89.76.467.505.7 1.191.7 2.057 0 .866-.233 1.552-.7 2.058-.465.504-1.095.755-1.89.755-.798 0-1.43-.252-1.898-.755-.464-.506-.696-1.192-.696-2.058 0-.866.232-1.552.696-2.058.468-.506 1.1-.759 1.898-.759zm1.162 1.37c-.287-.36-.675-.54-1.162-.54-.488 0-.875.18-1.163.537-.288.357-.432.84-.432 1.45 0 .607.144 1.089.432 1.446.288.358.675.536 1.163.536.487 0 .875-.178 1.162-.536.288-.357.432-.84.432-1.446 0-.607-.144-1.089-.432-1.446zm8.56 1.315l2.37 2.855h-1.223l-2.049-2.485h-.03v2.485h-.955V49.07h-.03l-2.064 2.485h-1.193l2.352-2.844-2.189-2.605h1.136l1.958 2.382h.03v-2.382h.955v2.382h.03l1.962-2.382h1.117L28.32 48.7zm6.616 2.855v-3.92h-.05l-2.654 3.92h-.947v-5.45h.973v3.932h.05l2.65-3.931h.947v5.449h-.97zm3.105-2.39v-.786h.727c.298 0 .54-.077.724-.23a.744.744 0 00.276-.6.703.703 0 00-.261-.578c-.172-.144-.408-.216-.709-.216-.303 0-.547.075-.734.223a.823.823 0 00-.31.608h-.913c.025-.496.215-.889.571-1.178.356-.292.827-.438 1.413-.438.558 0 1.012.137 1.363.411.351.272.527.625.527 1.058 0 .304-.095.572-.284.804a1.29 1.29 0 01-.739.45v.03c.366.042.657.185.871.426.215.242.322.547.322.914 0 .466-.198.853-.594 1.163-.394.31-.89.465-1.485.465-.608 0-1.105-.15-1.488-.45a1.546 1.546 0 01-.61-1.19h.94c.02.255.134.458.344.609.212.148.484.222.818.222.32 0 .58-.08.776-.241a.78.78 0 00.296-.635.736.736 0 00-.292-.619c-.192-.148-.46-.223-.803-.223h-.746zm8.252 2.39h-.973v-2.364h-2.659v2.364h-.977v-5.45h.977v2.266h2.659v-2.265h.973v5.449zm4.693 0v-3.92h-.05l-2.654 3.92h-.947v-5.45h.973v3.932h.05l2.65-3.931h.947v5.449h-.97z" fill="#313C48"/><path d="M9.722 55.369h-.447a.442.442 0 00-.15-.23.429.429 0 00-.278-.09.42.42 0 00-.356.18c-.087.118-.13.279-.13.482 0 .205.043.366.13.485a.425.425 0 00.358.175.449.449 0 00.278-.083.412.412 0 00.152-.234h.446a.76.76 0 01-.28.508c-.156.126-.356.189-.6.189-.294 0-.528-.093-.7-.28-.174-.186-.26-.44-.26-.76 0-.318.086-.57.26-.76.172-.188.405-.283.696-.283.245 0 .446.066.602.199.157.132.25.3.279.502zm1.846-.66v.363h-.617v1.64h-.468v-1.64h-.617v-.362h1.702zm1.396-.033a.74.74 0 01.607.277c.15.185.226.438.226.758 0 .318-.075.57-.224.755a.733.733 0 01-.602.277.74.74 0 01-.38-.096.628.628 0 01-.249-.268h-.01v.991h-.47v-2.66h.46v.345h.009a.656.656 0 01.252-.277.708.708 0 01.38-.102zm-.144 1.682a.43.43 0 00.361-.174c.089-.117.133-.275.133-.473 0-.198-.045-.355-.135-.472a.427.427 0 00-.36-.176.423.423 0 00-.354.177.769.769 0 00-.136.47.772.772 0 00.136.472c.09.117.208.176.355.176zm2.054.03c.135 0 .249-.04.34-.119a.38.38 0 00.141-.3v-.153l-.464.029a.476.476 0 00-.265.084.23.23 0 00-.093.191c0 .082.031.148.093.197a.4.4 0 00.248.071zm-.142.355a.7.7 0 01-.483-.168.558.558 0 01-.187-.436c0-.177.065-.318.197-.42.132-.104.321-.163.566-.178l.53-.03v-.144a.305.305 0 00-.1-.244.401.401 0 00-.275-.087c-.11 0-.2.025-.269.074a.301.301 0 00-.127.2h-.437a.601.601 0 01.244-.462c.154-.12.357-.18.608-.18.249 0 .448.06.596.181.15.121.226.283.226.484v1.378h-.455v-.319h-.009a.631.631 0 01-.258.257.752.752 0 01-.367.094zm2.288-.75h-.01l-.417.718h-.501l.647-.999-.642-1.002h.53l.406.702h.01l.399-.702h.517l-.646.99.638 1.011h-.515l-.416-.717zm2.762.48c-.175.185-.411.278-.708.278s-.533-.093-.708-.278c-.176-.186-.263-.44-.263-.762s.088-.575.265-.761c.177-.188.412-.282.706-.282.295 0 .53.094.706.282.177.186.265.44.265.76 0 .323-.087.577-.263.763zm-1.068-.27a.427.427 0 00.36.176.427.427 0 00.36-.176c.088-.117.132-.281.132-.492 0-.21-.044-.374-.132-.491a.425.425 0 00-.36-.178c-.15 0-.27.06-.36.178-.088.117-.132.28-.132.49 0 .212.044.376.132.493zm2.513-1.174h-.38v.498h.344c.222 0 .333-.084.333-.253a.222.222 0 00-.077-.18c-.05-.044-.124-.065-.22-.065zm-.008.797h-.373v.566h.411a.402.402 0 00.258-.072c.06-.049.089-.12.089-.211 0-.189-.128-.283-.384-.283zm-.835.885V54.71h.953c.202 0 .36.045.475.136.115.09.172.213.172.372a.432.432 0 01-.102.281.406.406 0 01-.25.15v.014a.52.52 0 01.32.155.44.44 0 01.121.315.514.514 0 01-.195.423c-.128.104-.304.155-.526.155h-.968zm2.773-.323c.135 0 .248-.04.34-.119a.38.38 0 00.14-.3v-.153l-.463.029a.475.475 0 00-.265.084.229.229 0 00-.093.191c0 .082.03.148.093.197a.4.4 0 00.248.071zm-.142.355a.7.7 0 01-.483-.168.558.558 0 01-.188-.436c0-.177.066-.318.197-.42.133-.104.322-.163.566-.178l.53-.03v-.144a.305.305 0 00-.1-.244.401.401 0 00-.274-.087.46.46 0 00-.27.074.301.301 0 00-.126.2h-.438a.602.602 0 01.245-.462c.154-.12.356-.18.608-.18.248 0 .447.06.596.181a.59.59 0 01.225.484v1.378h-.454v-.319h-.01a.632.632 0 01-.257.257.753.753 0 01-.367.094zm2.295-1.046h.348v-.628h-.348a.373.373 0 00-.26.086.305.305 0 00-.095.236c0 .09.033.163.097.221.064.057.15.085.258.085zm.348 1.014v-.67h-.269l-.468.67h-.526l.54-.744a.652.652 0 01-.33-.213.57.57 0 01-.117-.36c0-.21.07-.377.212-.5.143-.122.334-.184.574-.184h.846v2.001h-.462zm2.58-1.067l.89 1.067h-.579l-.746-.895h-.015v.895h-.47V54.71h.47v.834h.015l.735-.834h.55l-.85.934zm2.67.83c-.175.184-.41.277-.707.277s-.533-.093-.709-.278c-.175-.186-.263-.44-.263-.762s.089-.575.265-.761c.177-.188.413-.282.707-.282.295 0 .53.094.706.282.177.186.265.44.265.76 0 .323-.088.577-.263.763zm-1.067-.27a.427.427 0 00.36.175.427.427 0 00.36-.176c.088-.117.132-.281.132-.492 0-.21-.044-.374-.133-.491a.425.425 0 00-.36-.178c-.15 0-.27.06-.36.178-.087.117-.132.28-.132.49 0 .212.045.376.133.493zm2.119.507h-.449V54.71h.6l.593 1.397h.015l.593-1.397h.59v2.001h-.448v-1.369h-.015l-.566 1.277h-.334l-.566-1.277h-.013v1.37zm3.664 0v-1.639h-.83v1.64h-.47V54.71h1.771v2.001h-.471zm1.628-.323c.136 0 .25-.04.341-.119a.38.38 0 00.14-.3v-.153l-.464.029a.475.475 0 00-.265.084.229.229 0 00-.092.191c0 .082.03.148.092.197a.4.4 0 00.248.071zm-.142.355a.7.7 0 01-.483-.168.559.559 0 01-.187-.436c0-.177.066-.318.197-.42.133-.104.321-.163.566-.178l.53-.03v-.144a.305.305 0 00-.1-.244.401.401 0 00-.275-.087.452.452 0 00-.268.074.301.301 0 00-.127.2h-.438a.602.602 0 01.245-.462c.154-.12.356-.18.607-.18.25 0 .448.06.597.181a.59.59 0 01.225.484v1.378h-.454v-.319h-.01a.632.632 0 01-.257.257.753.753 0 01-.368.094zm2.82-.032v-.85h-.848v.85h-.47V54.71h.47v.789h.848v-.79h.47v2.002h-.47zm1.356 0h-.462V54.71h.462v1.337h.015l.873-1.337h.462v2.001h-.462v-1.346h-.015l-.873 1.346zm2.566-1.014h.348v-.628h-.349a.373.373 0 00-.259.086.305.305 0 00-.094.236c0 .09.032.163.096.221.064.057.15.085.258.085zm.348 1.014v-.67h-.269l-.468.67h-.526l.54-.744a.653.653 0 01-.33-.213.57.57 0 01-.117-.36c0-.21.07-.377.212-.5.142-.122.334-.184.574-.184h.846v2.001H44.2z" fill="#A89060"/></svg>