<svg width="93" height="93" fill="none" xmlns="http://www.w3.org/2000/svg"><g clip-path="url(#clip0_60_1741)" fill="#0D1C41"><path d="M80.307 16.921l-.508-8.567c-.09-1.413-1.27-2.5-2.702-2.409a2.568 2.568 0 00-2.412 2.699l.145 2.517c-7.398-5.524-16.374-8.53-25.803-8.53-11.532 0-22.376 4.491-30.518 12.624a2.567 2.567 0 000 3.622c1.378 1.377 3.12.507 3.627 0 7.18-7.172 16.737-11.139 26.91-11.139 8.087 0 15.775 2.5 22.194 7.136l-2.212.145a2.568 2.568 0 00-2.412 2.699c.073 1.358 1.215 2.409 2.557 2.409.054 0 8.722-.507 8.722-.507a2.568 2.568 0 002.412-2.699zM39.181 82.45C20.94 77.58 9.371 60.174 11.184 41.989l1.215 1.83c.49.742 2.049 1.63 3.536.724 1.196-.742 1.504-2.355.725-3.532l-4.715-7.172a2.657 2.657 0 00-1.614-1.105 2.64 2.64 0 00-1.922.362l-7.162 4.71a2.543 2.543 0 00-.726 3.531 2.55 2.55 0 003.536.725l2.122-1.395c-2.484 20.937 10.735 41.114 31.678 46.71.218.055 2.485.326 3.137-1.81.417-1.341-.435-2.754-1.813-3.116zm51.552-47.87a2.572 2.572 0 00-3.137-1.81 2.568 2.568 0 00-1.813 3.133c4.878 18.22-4.406 36.948-21.089 44.465l.98-1.974a2.54 2.54 0 00-1.143-3.424c-1.27-.633-2.81-.126-3.427 1.142l-3.844 7.661a2.54 2.54 0 001.142 3.423l7.67 3.84c.363.181 2.412.634 3.427-1.141.708-1.232.127-2.79-1.142-3.423l-2.303-1.16c19.403-8.295 30.282-29.794 24.68-50.731zm-53.51 20.34l4.605-4.8c1.795-1.865 4.697-4.51 4.697-8.367 0-2.409-1.85-7.788-8.287-7.788-4.896 0-8.16 3.767-9.357 5.614l4.552 2.7c1.432-2.283 2.955-3.424 4.551-3.424 3.1 0 2.992 2.137 2.992 2.988 0 2.246-2.684 4.764-4.189 6.303l-7.47 7.644v4.22h17.97v-5.09H37.222zm29.067-5.922V44.56h-5.458v4.438h-3.609l8.632-14.454H59.67l-9.084 15.033v4.33h10.245v6.085h5.458v-6.086h2.883v-4.908H66.29zm9.084-17.732c-.87 0-1.65.344-2.339 1.05V28.26h-2.303v11.375h2.303v-4.456c0-.652.163-1.956 1.723-1.956.925 0 1.396.634 1.396 1.902v4.51h2.303v-5c0-1.63-1.015-3.368-3.082-3.368z"/></g><defs><clipPath id="clip0_60_1741"><path fill="#fff" transform="translate(.097 .927)" d="M0 0h92.106v92H0z"/></clipPath></defs></svg>