<svg width="109" height="109" fill="none" xmlns="http://www.w3.org/2000/svg"><path d="M52.389 58.131c-7.605-15.42-27.25-43.22-44.994-31.052-17.744 12.167 18.292 43.898 25.263 46.432 6.97 2.535 10.697-4.334 3.254-11.577-9.591-9.335-21.546 27.883-8.238 34.22 10.646 5.07 27.164-22.009 27.883-27.25.72-5.24-3.168-10.773-3.168-10.773z" stroke="#000" stroke-width="3"/><path d="M56.49 55.596c7.605-15.42 27.25-43.22 44.994-31.052S83.192 68.442 76.221 70.977c-6.97 2.535-10.697-4.335-3.254-11.578 9.591-9.335 21.546 27.883 8.238 34.22-10.646 5.07-27.164-22.008-27.883-27.25-.72-5.24 3.168-10.773 3.168-10.773z" stroke="#000" stroke-width="3"/></svg>