<svg width="89" height="89" fill="none" xmlns="http://www.w3.org/2000/svg"><g clip-path="url(#clip0_60_1774)"><path d="M66.69 40.459a3.438 3.438 0 100-6.876 3.438 3.438 0 000 6.876zm-14.953 0a3.437 3.437 0 100-6.875 3.437 3.437 0 000 6.874zM21.831 70.365a3.437 3.437 0 100-6.875 3.437 3.437 0 000 6.875zm0-29.906a3.437 3.437 0 100-6.875 3.437 3.437 0 000 6.874zm0 14.953a3.437 3.437 0 100-6.875 3.437 3.437 0 000 6.875zm14.953 0a3.437 3.437 0 100-6.875 3.437 3.437 0 000 6.875zm0-14.953a3.437 3.437 0 100-6.875 3.437 3.437 0 000 6.874zm0 29.906a3.437 3.437 0 100-6.875 3.437 3.437 0 000 6.875z" fill="#000"/><rect x="50.421" y="50.187" width="18" height="18" rx="4" stroke="#000" stroke-width="4"/><rect x="2.347" y="9.446" width="84" height="77.481" rx="14" stroke="#000" stroke-width="4"/><path stroke="#000" stroke-width="4" stroke-linecap="round" d="M20.273 2.927v13.926M44.717 2.927v13.926M67.532 2.927v13.926"/></g><defs><clipPath id="clip0_60_1774"><path fill="#fff" transform="translate(.347 .927)" d="M0 0h88v88H0z"/></clipPath></defs></svg>