<svg width="82" height="86" fill="none" xmlns="http://www.w3.org/2000/svg"><path d="M21.667 39.449l5.518 5.427a2.239 2.239 0 002.354.512c.825-.3 1.39-1.03 1.474-1.905l.738-7.705a.172.172 0 01.07-.122 19.802 19.802 0 008.098-15.933A19.58 19.58 0 0034.045 5.68C30.257 1.945 25.248-.072 19.917.002 14.777.074 9.93 2.13 6.267 5.793 2.606 9.456.549 14.303.478 19.443A19.586 19.586 0 006.154 33.57a19.58 19.58 0 0014.043 5.875c.446 0 .897-.015 1.34-.045a.168.168 0 01.13.049zm-1.47-2.524c-4.64 0-8.99-1.82-12.249-5.124a17.084 17.084 0 01-4.952-12.324c.062-4.48 1.857-8.707 5.053-11.903 3.196-3.196 7.423-4.99 11.903-5.053a17.099 17.099 0 0112.324 4.952 17.08 17.08 0 015.124 12.25c0 5.47-2.641 10.666-7.065 13.898a2.694 2.694 0 00-1.092 1.917l-.686 7.154-5.124-5.04a2.692 2.692 0 00-2.065-.766 17.54 17.54 0 01-1.17.039zm61.14 27.92l-6.203-34.73a5.688 5.688 0 00-5.604-4.691h-3.933a8.99 8.99 0 00-2.625-2.856l1.504-4.13a2.143 2.143 0 00-1.28-2.744l-2.15-.783 2.367-6.502a2.134 2.134 0 00-1.276-2.737l-4.57-1.664a2.134 2.134 0 00-2.738 1.277l-2.367 6.502-2.15-.783a2.143 2.143 0 00-2.741 1.279l-9.48 26.045a2.144 2.144 0 001.278 2.744l.288.105-1.102 3.028a2.203 2.203 0 00.074 1.695c.25.537.695.944 1.25 1.147l8.142 2.963a2.21 2.21 0 001.695-.074c.536-.25.943-.695 1.146-1.251l1.103-3.03.287.104a2.136 2.136 0 002.743-1.278l2.078-5.705a8.923 8.923 0 008.65-4.645.98.98 0 01.507.857v9.697a1.26 1.26 0 102.519 0v-9.697a3.504 3.504 0 00-2.151-3.228 8.927 8.927 0 00-.016-3.817h2.948a3.17 3.17 0 013.124 2.615l6.203 34.73a9.442 9.442 0 01-2.06 7.74 9.443 9.443 0 01-7.258 3.39H37.062V66.221h25.917a5.776 5.776 0 005.77-5.77v-9.888a1.26 1.26 0 10-2.52 0v9.888a3.254 3.254 0 01-3.25 3.25h-2.335V59.22c0-1.158-.942-2.1-2.1-2.1h-27.21c-1.158 0-2.1.942-2.1 2.1v4.904c0 1.158.942 2.1 2.1 2.1h3.208v10.194H23.258c-1.157 0-2.1.942-2.1 2.1V83.9c0 1.158.943 2.1 2.1 2.1h9.604a1.26 1.26 0 100-2.52h-9.184v-4.544H66.2v4.544H38.74a1.26 1.26 0 100 2.52h27.88c1.158 0 2.1-.942 2.1-2.1v-4.963h.819c3.556 0 6.906-1.564 9.19-4.292a11.956 11.956 0 002.608-9.8zM57.065 6.507l3.85 1.4-2.236 6.143-3.85-1.402 2.236-6.14zm-8.467 41.031l-7.572-2.756 1-2.744 7.571 2.755-.999 2.745zm4.16-4.276l-12.17-4.428 9.22-25.332 12.17 4.43-1.272 3.493a8.885 8.885 0 00-2.835-.464c-4.922 0-8.926 4.004-8.926 8.926 0 3.77 2.349 6.998 5.66 8.305l-1.847 5.07zm5.113-6.968a6.414 6.414 0 01-6.407-6.407 6.414 6.414 0 016.407-6.407 6.414 6.414 0 016.407 6.407 6.414 6.414 0 01-6.407 6.407zM31.754 59.638h26.37v4.064h-26.37v-4.064z" fill="#000"/><path d="M57.871 26.072a3.82 3.82 0 00-3.815 3.815 3.82 3.82 0 003.815 3.815 3.82 3.82 0 003.816-3.815 3.82 3.82 0 00-3.816-3.815zm0 5.11a1.297 1.297 0 01-1.296-1.295 1.297 1.297 0 012.592 0c0 .715-.581 1.296-1.296 1.296zM28.028 18.5a3.939 3.939 0 003.934-3.935 3.939 3.939 0 00-3.934-3.934 3.939 3.939 0 00-3.934 3.934 3.939 3.939 0 003.934 3.935zm0-5.35c.78 0 1.415.635 1.415 1.415s-.635 1.415-1.415 1.415-1.415-.635-1.415-1.415.635-1.414 1.415-1.414zm-16.857 2.462a3.939 3.939 0 00-3.934 3.934 3.939 3.939 0 003.934 3.934 3.939 3.939 0 003.934-3.934 3.939 3.939 0 00-3.934-3.934zm0 5.349c-.78 0-1.415-.635-1.415-1.415s.635-1.415 1.415-1.415 1.415.635 1.415 1.415-.635 1.415-1.415 1.415zm19.392 2.913l-1.92 1.92a1.26 1.26 0 101.782 1.78l1.92-1.918a1.26 1.26 0 10-1.782-1.782zM18.06 8.552a1.26 1.26 0 00-1.782 0l-1.919 1.918a1.26 1.26 0 101.782 1.782l1.919-1.919a1.26 1.26 0 000-1.781zm3.987 10.508l-1.919-1.92a1.26 1.26 0 10-1.781 1.782l1.919 1.919a1.256 1.256 0 001.781 0 1.26 1.26 0 000-1.782zm-3.502 8.128l-1.919 1.919a1.26 1.26 0 101.782 1.781l1.919-1.919a1.26 1.26 0 10-1.782-1.781z" fill="#000"/></svg>