<svg width="93" height="90" fill="none" xmlns="http://www.w3.org/2000/svg"><path d="M51.006 78.802v6.953c0 .37.152.723.421.984.27.26.635.407 1.017.407h31.625c.38 0 .746-.147 1.016-.407.27-.261.421-.615.421-.984v-6.953c0-.369-.151-.722-.42-.983a1.462 1.462 0 00-1.017-.407V60.724c0-.167-.031-.332-.092-.488l-2.913-7.516a7.025 7.025 0 00-2.64-3.268 7.39 7.39 0 00-4.09-1.243H61.069v-9.285a10.373 10.373 0 007.19.535c1.503.433 3.089.521 4.632.256a10.24 10.24 0 004.258-1.78 9.822 9.822 0 002.98-3.439 9.476 9.476 0 001.069-4.366 9.477 9.477 0 00-1.07-4.367 9.82 9.82 0 00-2.98-3.438 10.238 10.238 0 00-4.259-1.78 10.39 10.39 0 00-4.63.257 10.363 10.363 0 00-7.19.535V7.88a4.109 4.109 0 00-1.265-2.948 4.392 4.392 0 00-3.048-1.224h-28.75a4.392 4.392 0 00-3.048 1.224 4.109 4.109 0 00-1.264 2.948v30.594h-.015a5.404 5.404 0 00-3.159 1 5.118 5.118 0 00-1.917 2.627l-4.908 15.433a1.36 1.36 0 00-.051.226l-2.708 19.652h-.18a1.46 1.46 0 00-1.016.407c-.27.26-.421.614-.421.983v6.953c0 .37.151.723.42.984.27.26.636.407 1.017.407h31.625c.381 0 .747-.147 1.017-.407.27-.261.42-.615.42-.984v-6.953a1.36 1.36 0 00-.273-.816 1.437 1.437 0 00-.716-.505l2.074-7.022h2.394l4.277 7.239c-.177.129-.32.296-.418.488a1.35 1.35 0 00-.15.616zm31.625 5.563h-28.75v-4.172h28.75v4.172zm-11.5-61.188a7.36 7.36 0 013.993 1.172 7.009 7.009 0 012.648 3.12 6.743 6.743 0 01.408 4.018 6.886 6.886 0 01-1.967 3.56 7.265 7.265 0 01-3.68 1.903 7.412 7.412 0 01-4.152-.396 7.14 7.14 0 01-3.226-2.56 6.792 6.792 0 01-1.211-3.864 6.848 6.848 0 012.107-4.914 7.32 7.32 0 015.08-2.039zm-7.176.138c-1.85 1.817-2.886 4.265-2.886 6.815 0 2.55 1.036 4.999 2.886 6.816a7.233 7.233 0 01-4.139-2.413 6.815 6.815 0 01-1.624-4.403c0-1.605.574-3.16 1.624-4.402a7.233 7.233 0 014.14-2.413zm-23.011 61.05h-28.75v-4.172h28.75v4.172zm-1.085-6.953H13.835l2.642-19.17 4.873-15.324a2.37 2.37 0 011.085-1.332c.52-.299 1.137-.4 1.73-.282a2.445 2.445 0 011.476.914 2.3 2.3 0 01.46 1.637l-2.394 16.678a1.35 1.35 0 00.096.722 1.4 1.4 0 00.458.577c.067.048 6.62 4.934 6.62 10.017 0 .37.152.723.421.984.27.26.635.407 1.017.407.38 0 .746-.147 1.016-.407.27-.261.421-.615.421-.984a8.864 8.864 0 00-.114-1.39h8.27l-2.053 6.953zm6.971-9.735H32.79c-1.594-3.56-4.741-6.405-6.124-7.538l2.286-15.923.005-.037a4.986 4.986 0 00-.478-2.767 5.191 5.191 0 00-1.91-2.11V7.88c0-.368.152-.722.421-.982.27-.261.635-.408 1.016-.408h6.3l1.04 2.012c.119.231.302.426.53.561.227.136.488.208.755.208h11.5c.267 0 .529-.072.756-.208.227-.135.41-.33.53-.56l1.04-2.013h6.3c.38 0 .746.147 1.015.408.27.26.421.614.422.982v15.447c-1.843 1.816-2.875 4.259-2.875 6.803 0 2.545 1.032 4.988 2.875 6.804v11.275h-1.739l-7.251-14.81a4.956 4.956 0 00-2.076-2.163 5.194 5.194 0 00-2.985-.612c2.133-1.598 6.863-5.94 6.863-13.01 0-.24-.064-.475-.187-.684a1.412 1.412 0 00-.51-.508L43.12 12.25a1.474 1.474 0 00-1.48 0l-7.187 4.172a1.414 1.414 0 00-.51.504 1.355 1.355 0 00-.188.681c-.002.373.04 9.19 7.888 13.718.06.034.122.064.185.09a4.924 4.924 0 00-1.991 2.506 4.749 4.749 0 00.006 3.163h-6.088a1.46 1.46 0 00-1.016.407c-.27.26-.421.614-.421.983V49.6c0 .369.151.723.42.983.27.261.636.408 1.017.408h12.357l1.258 2.781H33.756a1.46 1.46 0 00-1.016.407c-.27.261-.421.615-.421.984v5.562c0 .369.151.723.42.983.27.261.636.408 1.017.408h13.65l-.576 5.562zm-4.482-39.223c-4.547-3.084-5.478-8.173-5.668-10.08l5.701-3.31 5.727 3.325c-.333 5.486-4.136 8.865-5.76 10.066zm2.507 19.755h-9.661v-8.344h5.888l3.773 8.343zm2.838 11.124h-12.5v-2.78H47.98l-.287 2.78zm1.914 9.43L51 55.302a1.35 1.35 0 00-.114-.696l-8.258-18.262a2.051 2.051 0 01-.038-1.603 2.145 2.145 0 011.135-1.168 2.254 2.254 0 011.657-.062c.539.19.979.578 1.225 1.08l11.726 23.948c.163.334.457.59.816.715a1.48 1.48 0 001.098-.053 1.41 1.41 0 00.739-.79c.128-.347.108-.73-.055-1.063l-3.114-6.357h3.8l3.916 7.575c.084.165.2.312.343.433a1.484 1.484 0 001.591.199c.17-.083.32-.197.445-.335.124-.14.218-.3.277-.475a1.349 1.349 0 00-.085-1.066l-3.271-6.331h3.973l3.915 7.575c.084.165.2.312.343.433a1.484 1.484 0 001.591.199c.17-.083.321-.197.445-.335a1.349 1.349 0 00.193-1.54l-3.273-6.332h2.315a4.435 4.435 0 012.454.746 4.216 4.216 0 011.585 1.96l2.82 7.28v16.436H54.716l-5.108-8.648z" fill="#000"/><path d="M68.256 32.912c0 .368.152.722.421.983.27.26.635.407 1.017.407h1.437c.763 0 1.494-.293 2.033-.814.54-.522.842-1.23.842-1.967 0-.738-.303-1.445-.842-1.967a2.925 2.925 0 00-2.033-.814h1.438c.38 0 .746-.147 1.016-.408.27-.26.421-.614.421-.983s-.151-.722-.42-.983a1.462 1.462 0 00-1.017-.407H71.13c-.762 0-1.494.293-2.033.814a2.736 2.736 0 00-.842 1.967c0 .737.303 1.445.842 1.966.54.522 1.27.815 2.033.815h-1.437c-.382 0-.747.146-1.017.407-.27.261-.42.615-.42.984z" fill="#000"/></svg>