<svg width="20" height="20" fill="none" xmlns="http://www.w3.org/2000/svg"><path d="M12.418 3.49a.854.854 0 00-1.004.68.862.862 0 00.678 1.01 3.462 3.462 0 012.743 2.75.86.86 0 001.006.682.865.865 0 00.677-1.012 5.174 5.174 0 00-4.1-4.11z" fill="#576077"/><path d="M12.356.008a.817.817 0 00-.625.176.852.852 0 00-.323.584.86.86 0 00.757.95 6.912 6.912 0 016.126 6.139.857.857 0 101.704-.192C19.54 3.607 16.4.459 12.356.008z" fill="#576077"/><path fill-rule="evenodd" clip-rule="evenodd" d="M9.032 10.972c3.989 3.988 4.894-.625 7.434 1.913 2.448 2.448 3.856 2.938.753 6.04-.388.312-2.857 4.07-11.534-4.605C-2.993 5.644.762 3.172 1.074 2.784c3.11-3.11 3.592-1.695 6.04.753 2.54 2.54-2.071 3.447 1.918 7.435z" fill="#576077"/></svg>