<svg width="667" height="500" fill="none" xmlns="http://www.w3.org/2000/svg"><path d="M605.283 312.939c0 5.783-.191 11.522-.574 17.216a252.33 252.33 0 01-20.116 83.303 278.458 278.458 0 01-5.588 12.051H122.747a250.523 250.523 0 01-13.556-33.036 250.012 250.012 0 01-5.8-20.411 254.34 254.34 0 01-6.911-59.123c-.016-140.307 113.89-254.05 254.394-254.05a256.477 256.477 0 0134.725 2.346c2.659.367 5.317.77 7.975 1.216 2.91.492 5.807 1.023 8.692 1.593a255.07 255.07 0 0199.28 44.152 254.65 254.65 0 0171.835 81.439 254.574 254.574 0 0110.632 21.368 243.286 243.286 0 017.065 17.906 253.1 253.1 0 0114.232 83.308c-.027.26-.027.489-.027.722z" fill="#4A607A"/><path d="M605.283 312.939c0 5.783-.191 11.522-.574 17.216a252.331 252.331 0 01-20.117 83.303 277.253 277.253 0 01-5.587 12.051H122.747a250.523 250.523 0 01-13.556-33.036l144.836-89.387 136.096 12.741 183.242-126.165a254.554 254.554 0 0110.632 21.367 243.286 243.286 0 017.065 17.906 253.11 253.11 0 0114.232 83.309c-.011.233-.011.462-.011.695z" fill="#1A3554"/><path d="M239.88 175.944a4.34 4.34 0 004.344-4.337 4.34 4.34 0 00-4.344-4.337 4.34 4.34 0 00-4.343 4.337 4.34 4.34 0 004.343 4.337z" fill="#2C3149"/><path d="M501.308 147.411H217.754c-13.03 0-23.593 10.548-23.593 23.559v144.613c0 13.012 10.563 23.56 23.593 23.56h283.554c13.03 0 23.593-10.548 23.593-23.56V170.97c0-13.011-10.563-23.559-23.593-23.559z" fill="#4F6097"/><path d="M492.27 138.917H208.717c-13.031 0-23.594 10.548-23.594 23.559v144.613c0 13.012 10.563 23.56 23.594 23.56H492.27c13.031 0 23.594-10.548 23.594-23.56V162.476c0-13.011-10.563-23.559-23.594-23.559z" fill="#303072"/><path d="M209.461 175.78v119.343h283.814V175.78H209.461zm282.73 26.517h-36.847v-25.455h36.868l-.021 25.455zm-128.744 1.061h51.69v28.173h-51.669l-.021-28.173zm-1.064 28.173h-52.259v-28.173h52.281l-.022 28.173zm53.817-28.173h38.059v28.173h-38.038l-.021-28.173zm0-1.061v-25.455h38.059v25.455H416.2zm-1.063 0h-51.669v-25.455h51.69l-.021 25.455zm-52.754 0h-52.259v-25.455h52.281l-.022 25.455zm-53.343 0h-48.702v-25.455h48.723l-.021 25.455zm0 1.061v28.173h-48.702v-28.173h48.702zm-49.766 28.173h-48.75v-28.173h48.75v28.173zm0 1.062v33.614h-48.75v-33.614h48.75zm1.064 0h48.723v33.614h-48.723v-33.614zm49.786 0h52.281v33.614h-52.281v-33.614zm53.344 0h51.69v33.614h-51.69v-33.614zm52.753 0h38.059v33.614h-38.059v-33.614zm39.123 0h36.868v33.614h-36.868v-33.614zm0-1.062v-28.173h36.868v28.173h-36.868zm-196.07-54.679v25.455h-48.75v-25.465l48.75.01zm-48.75 117.21v-26.793h48.75v26.012h1.064v-26.012h48.723v26.012h1.063v-26.012h52.281v26.012h1.063v-26.012h51.69v26.012h1.063v-26.012h38.059v26.012h1.064v-26.012h36.868v26.793H210.524z" fill="#fff"/><path d="M208.701 293.467a1.596 1.596 0 01-1.426-.928 1.595 1.595 0 01-.047-1.217 178.462 178.462 0 0119.245-35.96c7.336-10.442 15.194-18.74 23.365-24.648 10.308-7.459 21.153-11.149 32.174-10.926 1.313 0 21.196.048 41.855 25.885 8.953 11.196 22.546 17.492 37.262 17.312 19.75-.26 38.936-11.387 54.04-31.321 29.468-38.955 46.815-51.738 77.309-56.925a1.598 1.598 0 011.839 1.306 1.59 1.59 0 01-1.308 1.837c-29.888 5.096-46.081 17.067-75.331 55.693-8.065 10.654-17.294 18.899-27.432 24.51-9.33 5.16-19.394 7.963-29.107 8.085-15.725.207-30.228-6.54-39.797-18.511-19.862-24.834-39.112-24.68-39.341-24.685h-.074c-23.535-.473-41.722 18.32-52.86 34.166a175.787 175.787 0 00-18.899 35.281 1.596 1.596 0 01-1.467 1.046z" fill="#EC685A"/><path d="M209.992 296.185a1.599 1.599 0 01-1.364-.774 1.598 1.598 0 01-.039-1.567c.26-.488 6.523-12.098 18.692-23.793 11.127-10.692 29.42-23.332 53.694-23.332h1c1.196 0 20.994 0 41.685 18.984 10.047 9.226 25.406 13.802 42.131 12.534 18.16-1.37 35.736-9.476 49.5-22.828 30.59-29.664 47.899-40.494 77.155-48.282a1.592 1.592 0 011.248.122 1.59 1.59 0 01.16 2.692 1.593 1.593 0 01-.584.26c-28.979 7.719-45.268 17.927-75.757 47.491-14.295 13.861-32.578 22.296-51.477 23.709-17.608 1.321-33.838-3.541-44.535-13.362-19.904-18.273-39.292-18.161-39.494-18.145h-.054c-23.668-.345-41.536 11.971-52.375 22.365a104.529 104.529 0 00-18.166 23.066 1.599 1.599 0 01-1.42.86z" fill="#00132C"/><path d="M284.346 350.2l.058-.137a1.171 1.171 0 01-.058.137zm.074-.137c.112-.314.25-.648.404-.998-.197.472-.34.812-.404.998z" fill="#EC685A"/><path d="M176.309 410.188v11.148a47.167 47.167 0 01-12.988-3.716v-7.432h12.988zm35.73 0v8.043c-3.721 1.773-8.16 2.739-12.993 3.222v-11.265h12.993z" fill="#B8A375"/><path d="M234.782 384.983v6.121a9.845 9.845 0 01-2.747 6.809 9.871 9.871 0 01-6.7 3.022c-5.226 10.925-18.325 18.862-33.928 19.642-20.409-.95-36.587-14.131-36.587-30.259.004-2.249.322-4.486.947-6.646-5.003-1.407-7.512-4.417-8.762-7.279a24.362 24.362 0 006.343 1.328c.149-.261.303-.531.462-.754 1.489.38 3.008.632 4.54.754 5.848-9.89 18.304-16.919 32.988-17.62 2.824.142 5.631.529 8.389 1.158.206-.284.439-.547.696-.786 2.977-2.994 10.883-5.68 10.883-5.68v10.803c8.187 4.512 14.029 11.403 15.863 19.387h7.613z" fill="#DDD0A4"/><path d="M211.295 354.793s-7.007 3.302-8.421 7.219c0 0-4.078-1.879-5.805-2.038-1.728-.159 8.522-7.857 14.226-5.181zm-19.91 65.8a46.4 46.4 0 01-2.599.069c-21.531 0-38.979-13.574-38.979-30.312 0-2.261.326-4.51.968-6.678-10.957-3.079-9.931-13.904-9.931-13.904.563 3.515 3.19 5.505 6.183 6.626 1.249 2.861 3.758 5.871 8.761 7.278a24.112 24.112 0 00-.968 6.678c0 16.112 16.178 29.293 36.565 30.243zm0-60.492c-14.683.701-27.15 7.73-32.987 17.62a27.041 27.041 0 01-4.54-.754c6.38-10.028 19.628-16.929 34.976-16.929.829 0 1.685.021 2.551.063z" fill="#B8A375"/><path d="M209.179 386.921a4.367 4.367 0 004.37-4.364 4.367 4.367 0 00-4.37-4.364 4.367 4.367 0 00-4.37 4.364 4.367 4.367 0 004.37 4.364z" fill="#2C3149"/><path d="M202.794 371.717h-27.23a.72.72 0 01-.539-.183.7.7 0 01-.229-.521.696.696 0 01.229-.52.71.71 0 01.539-.183h27.23a.697.697 0 01.709.419.713.713 0 010 .568.703.703 0 01-.42.385.726.726 0 01-.289.035z" fill="#B8A375"/><path d="M188.504 367.395c8.976 0 16.252-7.266 16.252-16.228 0-8.963-7.276-16.229-16.252-16.229-8.976 0-16.252 7.266-16.252 16.229 0 8.962 7.276 16.228 16.252 16.228z" fill="#EFB2A0"/><path d="M176.309 421.32v3.456h-12.988v-7.156a47.156 47.156 0 0012.988 3.7zm35.73-3.089v6.545h-12.993v-3.307c4.833-.499 9.251-1.465 12.993-3.238z" fill="#DDD0A4"/><path d="M188.504 360.186c4.989 0 9.032-4.038 9.032-9.019s-4.043-9.02-9.032-9.02c-4.988 0-9.032 4.039-9.032 9.02s4.044 9.019 9.032 9.019z" fill="#FDE5CF"/><path d="M444.188 314.109c-.048.774-.096 1.489-.133 2.141a3.439 3.439 0 01-1.394 2.55 3.526 3.526 0 01-2.87.606l-.682 4.829-.442 3.188a22.012 22.012 0 01-7.462 13.59 22.555 22.555 0 01-17.198 5.294 22.129 22.129 0 01-2.584-.452l-5.261 37.389-.532 3.782L399.005 434h-93.74l-8.138-46.29-.869-4.923-6.657-37.842a22.261 22.261 0 01-3.879.783c-9.967 1.116-23.13-9.084-28.332-19.347a2.977 2.977 0 01-2.419-.544 2.925 2.925 0 01-.814-.963 2.873 2.873 0 01-.327-1.212l-1.599-37.963-.064-.689c-1.801-16.501 11.235-30.325 25.582-35.67l2.99-1.078a66.98 66.98 0 015.057-2.041L311.825 237c6.63 8.942 21.206 15.128 38.111 15.128a64.846 64.846 0 0015.099-1.709c.858-.2 1.695-.416 2.515-.658 8.837-2.53 15.989-6.912 20.252-12.345l24.868 8.795a68.305 68.305 0 016.278 2.63l3.006 1.089c13.489 5.023 23.449 18.757 22.863 32.844.506 9.826-.149 23.503-.629 31.335z" fill="#DDD0A4"/><path d="M387.779 237.392c-6.752 8.802-21.105 14.864-37.745 14.864-16.869 0-31.414-6.259-38.028-15.278l17.943-6.434v-32.277h39.383v32.516l18.447 6.609z" fill="#F7AD83"/><path d="M369.597 202.307v10.002c-4.306 4.703-10.797 9.969-18.245 9.969-9.388 0-17.257-6.625-21.137-10.617v-8.743l13.747-.611h25.635z" fill="#EC685A"/><path d="M379.815 161.309c.106.764.207 1.523.292 2.293v.058a73.19 73.19 0 01.229 14.371v.048c-.941 11.089-4.556 21.075-10.803 27.705a25.754 25.754 0 01-15.353 8.048c-16.48 2.368-28.873-9.879-35.289-26.999a75.754 75.754 0 01-3.722-13.766 73.708 73.708 0 01-.388-2.431c-3.567-24.802-4.822-42.883 26.364-47.359 5.316-.764 10.17 3.101 15.47 2.342 12.137-1.742 19.755 16.987 22.754 33.131 0 .069.026.138.042.202.152.778.287 1.564.404 2.357z" fill="#F7AD83"/><path d="M371.942 160.034l-19.41-3.27a1 1 0 01-.771-1.34.996.996 0 01.356-.459c3.344-2.315 11.165-5.755 20.707 3.296a1.065 1.065 0 01.167 1.189 1.057 1.057 0 01-1.049.584z" fill="#FDE5CF"/><path d="M335.169 175.721a2.71 2.71 0 002.712-2.707 2.71 2.71 0 00-2.712-2.707 2.71 2.71 0 00-2.711 2.707 2.71 2.71 0 002.711 2.707zm29.367-4.209a2.71 2.71 0 002.712-2.708 2.71 2.71 0 00-2.712-2.707 2.71 2.71 0 00-2.711 2.707 2.71 2.71 0 002.711 2.708zm-16.682 22.439a20.116 20.116 0 01-3.052-.212.54.54 0 01-.362-.82.538.538 0 01.548-.242c.107 0 10.936 1.832 15.157-5.839a.532.532 0 01.93.515c-3.11 5.68-9.436 6.598-13.221 6.598zm3.147 3.35a.271.271 0 01-.26-.207.26.26 0 01.034-.201.261.261 0 01.168-.118l6.512-1.491a.257.257 0 01.319.196.266.266 0 01-.197.319l-6.517 1.497-.059.005zm0-13.542a3.36 3.36 0 01-1.93-.558 2.802 2.802 0 01-1.158-1.964l-1.888-13.112a.534.534 0 011.058-.149l1.882 13.107a1.754 1.754 0 00.713 1.248 2.74 2.74 0 002.126.281 2.561 2.561 0 001.526-.817.531.531 0 01.904.557 3.496 3.496 0 01-2.212 1.295 4.732 4.732 0 01-1.021.112z" fill="#1A1A1A"/><path d="M321.134 167.483l19.139-4.709a.993.993 0 00.276-1.821c-3.508-2.06-11.562-4.905-20.403 4.831a1.06 1.06 0 00.988 1.699z" fill="#FDE5CF"/><path d="M318.976 186.827c-.47.433-.993.804-1.558 1.104-3.025 1.667-8.745-.578-10.585-5.101-1.839-4.523-.733-9.243 2.462-10.538 1.717-.695 3.971-.377 5.975.775.8 4.693 2.04 9.3 3.706 13.76z" fill="#EC685A"/><path d="M311.911 184.831c-2.01-2.851 1.26-6.105 2.078-6.843a3.186 3.186 0 00-2.078-1.491c-1.723-.308-3.461 1.061-3.477 1.061l-.335-.414c.08-.063 1.94-1.529 3.902-1.184a3.797 3.797 0 012.562 1.927l.117.197-.18.143c-.038.037-4.147 3.467-2.153 6.291l-.436.313z" fill="#1A1A1A"/><path d="M390.91 170.763c-.489 4.858-5.353 8.621-8.724 7.873a7.735 7.735 0 01-1.775-.611c.002-.04.002-.081 0-.122.175-2.033.255-4.103.233-6.195v-1.592a74.817 74.817 0 00-.393-5.946c0-.181-.037-.361-.058-.531.235-.237.483-.46.744-.669a7.062 7.062 0 013.753-1.624c.297-.03.596-.03.893 0 3.429.345 5.811 4.56 5.327 9.417z" fill="#EC685A"/><path d="M386.333 174.304a.243.243 0 01-.085 0 .267.267 0 01-.165-.334c1.117-3.27-3.79-5.41-3.843-5.431l-.213-.09.064-.218a3.758 3.758 0 011.914-2.569c1.791-.887 3.981 0 4.077.037a.255.255 0 01.087.058.261.261 0 01.077.19c0 .035-.007.07-.02.102a.273.273 0 01-.146.144.273.273 0 01-.205 0s-2.068-.834-3.637-.054a3.18 3.18 0 00-1.594 2.012c.994.484 5.05 2.687 3.918 5.989a.26.26 0 01-.229.164z" fill="#1A1A1A"/><path d="M330.087 189.981a5.191 5.191 0 005.194-5.187 5.191 5.191 0 00-5.194-5.187 5.19 5.19 0 00-5.194 5.187 5.19 5.19 0 005.194 5.187zm41.323-5.93a5.19 5.19 0 005.194-5.187 5.19 5.19 0 00-5.194-5.186 5.19 5.19 0 00-5.194 5.186 5.19 5.19 0 005.194 5.187z" fill="#EC685A"/><path d="M380.246 165.301s-6.571-9.025-6.948-17.455c-.378-8.43-3.982-12.693-7.539-13.574-1.712-.425-4.418.769-7.411 2.622-4.513 2.787-9.681 7.055-13.078 9.465-6.188 4.401-20.632 6.726-28.054.919-4.609-3.599-2.126 24.95-.813 29.728 0 0-3.456-8.934-8.9-12.284-5.443-3.35-9.128-8.802-5.05-16.409 4.078-7.607-2.701-13.027-2.876-20.024-.176-6.997 10.149-14.249 24.455-12.587 14.306 1.662 25.491-6.747 29.627-9.614 4.136-2.867 12.499-.764 13.753 10.824 1.255 11.589 7.879 2.018 12.51 6.461 3.524 3.392-.532 5.033 2.727 11.796 3.259 6.763 5.119.297 6.512 8.557 1.053 6.265-10.271 6.169-8.915 21.575z" fill="#FDE5CF"/><path d="M332.798 188.685a12.017 12.017 0 01-7.842-2.94 11.989 11.989 0 01-4.013-7.343 11.963 11.963 0 011.152-7.069 11.992 11.992 0 014.984-5.15 12.014 12.014 0 0113.61 1.475 11.962 11.962 0 013.367 13.25 11.98 11.98 0 01-4.409 5.649 12.008 12.008 0 01-6.849 2.128zm.032-23.443a11.475 11.475 0 00-9.064 4.429 11.441 11.441 0 001.703 15.817 11.483 11.483 0 0015.891-1.133 11.444 11.444 0 00-.565-15.899 11.481 11.481 0 00-7.965-3.214zm33.678 18.607a12.02 12.02 0 01-8.336-3.367 11.988 11.988 0 01-3.658-8.203 11.988 11.988 0 013.071-8.44 12.019 12.019 0 0116.635-1.182 11.98 11.98 0 011.78 16.557 12.01 12.01 0 01-9.492 4.635zm.032-23.443a11.48 11.48 0 00-10.849 7.622 11.436 11.436 0 00.639 9.132 11.471 11.471 0 0011.805 6.041 11.475 11.475 0 007.294-4.144 11.442 11.442 0 00-1.089-15.56 11.48 11.48 0 00-7.8-3.091z" fill="#1A1A1A"/><path d="M344.425 175.297a.268.268 0 01-.143-.039.26.26 0 01-.059-.391c.042-.059 4.572-5.42 10.818-1.561a.266.266 0 11-.281.451c-5.848-3.62-10.101 1.396-10.101 1.444a.276.276 0 01-.234.096z" fill="#1A1A1A"/><path d="M312.814 134.574c1.735.404 3.501.655 5.279.749a28.52 28.52 0 005.226-.165 20.153 20.153 0 004.822-1.216 14.974 14.974 0 003.971-2.335 13.472 13.472 0 001.558-1.593c.241-.274.467-.561.675-.86l.314-.446.462-.605a28.97 28.97 0 012.005-2.431c.372-.393.707-.802 1.121-1.184l1.255-1.142a16.893 16.893 0 016.8-3.578 7.897 7.897 0 011.1-.207c.383-.047.755-.111 1.154-.127.398-.016.797 0 1.196 0 .411.018.821.057 1.228.117.848.116 1.681.326 2.482.626.425.154.84.331 1.245.531.217.122.435.244.648.372l.372.244.186.133c.112.084.224.18.335.276a5.745 5.745 0 011.882 3.988 5.752 5.752 0 01-3.304 5.486 5.761 5.761 0 01-4.41.21 5.78 5.78 0 01-1.93-1.159c.064.06.132.115.203.165l.047.026.091.043h.069s.037-.048 0-.074a.45.45 0 00-.144-.197c-.048-.026-.079-.079-.138-.106a.808.808 0 01-.181-.085 1.978 1.978 0 00-.218-.005.67.67 0 00-.265-.048 6.602 6.602 0 00-3.227.844l-.952.531c-.319.175-.627.43-.952.637-.661.454-1.297.945-1.903 1.47l-.484.399-.632.557a15.04 15.04 0 01-1.313 1.062 19.945 19.945 0 01-9.001 3.716 25.054 25.054 0 01-6.124.154 31.84 31.84 0 01-5.774-1.099 32.97 32.97 0 01-5.401-2.049.862.862 0 01-.379-1.036.865.865 0 01.953-.557l.053-.032z" fill="#FCF4ED"/><path d="M358.348 136.894c-6.214 5.585-15.991 16.818-25.975 17.258-11.914.531-15.157-6.874-15.157-6.874 7.443 5.807 21.866 3.482 28.054-.919 3.397-2.41 8.565-6.678 13.078-9.465z" fill="#EC685A"/><path d="M392.308 348.449l-67.08-9.747 66.31 9.609.77.138z" fill="#406468"/><path opacity=".7" d="M403.276 298.24l-.904 17.672 36.587 9.104.68-4.873a3.492 3.492 0 004.253-3.185c.037-.658.085-1.38.133-2.161-36.501-2.553-40.749-16.557-40.749-16.557zm2.116 86.27a94.261 94.261 0 01-3.599-.382c-3.222-.382-7.294-1.009-12.36-1.985l-1.112-.218-1.297-.271a354.31 354.31 0 01-5.773-1.237l-.649-.148a384.94 384.94 0 01-3.067-.706l-.846-.202c-1.13-.273-2.296-.557-3.498-.855l-.898-.223a443.983 443.983 0 01-4.716-1.21l-.983-.26-1.994-.531-1.956-.531a575.68 575.68 0 01-8.134-2.299l-1.861-.53a740.15 740.15 0 01-10.999-3.334l-1.292-.409a857.655 857.655 0 01-24.093-7.963l-1.494-.531a336.356 336.356 0 01-6.853 13.601c-2.435 4.56-6.629 7.878-11.435 9.816l.856 4.984c4.024-1.173 15.13-5.903 19.293-22.954 0 0 68.659 21.452 88.93 22.259l.532-3.817h-.133l-.569-.064zM293.66 333.558l8.931-17.609c-8.596-8.159-9.362-15.214-9.362-15.214s-4.136 12.56-19.245 18.792a51.314 51.314 0 0111.696-1.407h2.472c.319 0 .638 0 .957.038.697.026 1.409.074 2.127.132l.808.064 1.01.096 1.031.116-.042 1.418-.383 13.574zm97.878 14.753l3.801.531a4.378 4.378 0 004.997-4.024l.479-6.795c-7.975 1.486-23.132 1.693-23.132 1.693-21.796-1.444-37.968-4.948-49.972-9.295-.107.26-.202.531-.309.785-.191.531-.388 1.014-.585 1.513-.783 2-1.561 3.946-2.333 5.84l.744.111 66.31 9.641z" fill="#B8A375"/><path d="M373.122 256.689l.064.053a.822.822 0 01-.149.318l-1.015 1.285 1.935 1.524-.266.34c-.595.753-1.818.775-2.733.053l-.404-.319 2.568-3.254z" fill="#EFCEC5"/><path d="M323.022 219.741l45.539 35.838-1.468 1.853-46.022-36.221a4.99 4.99 0 001.951-1.47z" fill="#EC685A"/><path d="M316.78 214.851l6.241 4.89a4.975 4.975 0 01-1.951 1.47l-.887-.695-4.025-4.959.351-.398.271-.308z" fill="#FDEFE7"/><path d="M313.415 212.197l3.365 2.654-.271.33-.351.398-2.743-3.382z" fill="#2C3149"/><path d="M324 217.729l45.922 36.146-1.361 1.726-45.54-35.86.032-.032a5.032 5.032 0 00.947-1.98z" fill="#9A3836"/><path d="M323.011 216.954l.989.775a5.037 5.037 0 01-.947 2.001l-.031.032-6.242-4.911.16-.201c.154-.191.303-.388.441-.584l5.63 2.888z" fill="#F7AD83"/><path d="M317.381 214.066c-.138.196-.287.393-.441.584l-.16.201-3.365-2.654-.228-.281 4.194 2.15z" fill="#030205"/><path d="M373.122 256.689l.064.053a.827.827 0 01-.149.319l-2.126 2.654a.765.765 0 01-.325.239 1.193 1.193 0 01-1.164-.213l-2.164-1.704a1.06 1.06 0 01-.319-1.454l1.096-1.391 3.848 3.031 1.239-1.534z" fill="#2C3149"/><path d="M373.202 256.742l.335.265c.919.722 1.185 1.917.59 2.655l-.154.196-1.935-1.523 1.015-1.285a.84.84 0 00.149-.308z" fill="#E2BEB5"/><path d="M369.06 253.928l-1.015 1.285 3.849 3.031.128.101 1.015-1.284a.841.841 0 00.149-.319 1.163 1.163 0 00-.473-1.136l-2.169-1.704a1.062 1.062 0 00-1.484.026z" fill="#191E30"/><path d="M439.655 320.143s-.101 35.467-11.483 53.824c-3.535 5.697-8.139 9.737-14.168 10.575-.615.087-1.234.138-1.855.154a22.07 22.07 0 01-2.61.053l-.825-.026c-.77 0-1.674-.08-2.737-.165l-.569-.048a94.876 94.876 0 01-3.599-.382c-3.222-.382-7.294-1.008-12.361-1.985l-1.111-.218-1.313-.271a354.31 354.31 0 01-5.773-1.237l-.649-.148a384.94 384.94 0 01-3.067-.706l-.846-.202c-1.13-.272-2.296-.557-3.498-.855l-.898-.223a443.983 443.983 0 01-4.716-1.21l-.983-.26-1.994-.531-1.956-.531a575.257 575.257 0 01-8.134-2.298l-1.861-.531a740.15 740.15 0 01-10.999-3.334l-1.292-.409a857.655 857.655 0 01-24.093-7.963l-1.494-.531-.208-.069c-1.541-.531-3.11-1.062-4.694-1.645l-3.354-1.184 2.716-7.719 1.329-3.775 2.127-5.977 1.159-3.281 3.062.446 2.929.425.787.117 3.892.53.744.112 66.31 9.609 3.801.53a4.376 4.376 0 004.997-4.023l.478-6.796.096-1.412 1.457-20.703s8.139-.473 16.847-.197c8.82.319 18.283 1.37 20.409 4.47z" fill="#F7AD83"/><path d="M428.156 373.967c-3.535 5.697-8.139 9.737-14.168 10.575-.615.087-1.234.138-1.855.154a22.07 22.07 0 01-2.61.053l-.824-.026c-.771 0-1.675-.08-2.738-.165l-.569-.048a94.876 94.876 0 01-3.599-.382c-3.222-.382-7.294-1.008-12.361-1.985l-1.111-.218-1.297-.271a354.31 354.31 0 01-5.773-1.237l-.649-.148a384.94 384.94 0 01-3.067-.706l-.846-.202c-1.13-.272-2.296-.557-3.498-.855l-.898-.223a443.983 443.983 0 01-4.716-1.21l-.983-.26-1.994-.531-1.956-.531a575.257 575.257 0 01-8.134-2.298l-1.861-.531a740.15 740.15 0 01-10.999-3.334l-1.292-.409a857.655 857.655 0 01-24.093-7.963l-1.494-.531-.208-.069c-1.541-.531-3.11-1.061-4.694-1.645l-3.354-1.184 2.716-7.719 1.329-3.775 6.327-5.213.292-.239 2.127-1.735 1.313-1.062 3.891.531.744.111c-.212.531-.68 1.672-1.19 3.185l-.112.345a37.173 37.173 0 00-1.935 8.956c-.186 3.313.531 6.222 3.19 7.193 5.465 2.055 54.555 18.204 83.784 19.35 8.719.345 15.662-.647 19.165-3.748zm-8.91-58.246c-5.768 1.927-8.464 10.761-10.388 22.1-.771 4.576-3.126 7.257-5.662 8.823-.545.332-1.111.629-1.696.886a15.919 15.919 0 01-4.29 1.2 4.378 4.378 0 003.131-3.891l.479-6.795.095-1.412 1.457-20.704s8.139-.472 16.847-.196l.027-.011z" fill="#EC685A"/><path d="M367.466 245.121c-.255.909-.58 1.797-.973 2.655-4.785 10.681-20.574 25.396-20.574 25.396-4.498 17.487-9.431 33.169-14.386 46.976a512.87 512.87 0 01-1.919 5.245c-.261.696-.532 1.381-.771 2.071-.383 1.008-.755 1.996-1.132 2.983-.107.26-.202.531-.309.786-.191.531-.388 1.014-.585 1.513a452.592 452.592 0 01-2.333 5.839c-.431 1.062-.867 2.124-1.298 3.185-.047.117-.095.223-.138.335a350.243 350.243 0 01-3.615 8.414c-1.595 3.626-3.19 7.023-4.673 10.198a335.71 335.71 0 01-6.853 13.601c-3.46 6.482-10.467 10.452-17.724 11.525-4.069.64-8.234.255-12.116-1.12a19.495 19.495 0 01-1.339-.563 16.074 16.074 0 01-8.459-8.759c-5.56-14.036-8.771-33.524-10.526-48.203a2.91 2.91 0 001.196-.562c.642-.51 1.363-1.03 2.164-1.561a40.416 40.416 0 0112.881-5.532 51.258 51.258 0 0111.696-1.407h2.472l.957.038c.697.031 1.404.074 2.127.138l.808.063 1.01.096 1.031.117-.042 1.417-.383 13.548 8.931-17.609 26.236-51.733-.282-17.046a37.955 37.955 0 013.551-17.418l2.127-4.57 3.115-14.636.16.037c.304.067.597.176.872.324h.026c4.886 2.691 2.196 16.579 1.723 18.83v.09a3.436 3.436 0 00-.053.223l25.693-24.792c.037.133.08.271.106.409.026.083.044.169.054.255.026.127.047.255.069.388.081.544.106 1.096.074 1.645 0 .149 0 .303-.032.457a.06.06 0 010 .042c0 .097-.011.193-.032.287 0 .218-.064.441-.106.669-.096.478-.213.961-.362 1.449-.047.17-.101.334-.159.504-.059.17-.17.499-.266.749a25.797 25.797 0 01-1.084 2.41c-.155.297-.319.6-.479.897-.159.297-.276.489-.42.733a30.187 30.187 0 01-.951 1.529c-.139.212-.277.424-.42.637-.144.212-.293.435-.442.653l-.6.849a75.486 75.486 0 01-1.877 2.447c-.314.388-.627.765-.93 1.131a94.552 94.552 0 01-4.328 4.778 1.93 1.93 0 00-.143.143 1.71 1.71 0 00-.144.138l-.122.128-.085.079-.128.128-.143.138-.085.085-.202.191 1.435-.627a3.358 3.358 0 012.015-.217 3.437 3.437 0 011.967 1.13l.149.16a3.902 3.902 0 01.34 4.592 2.826 2.826 0 012.839-.271l.202.111c.036.018.07.039.101.064l.058.037a2.666 2.666 0 01.532.446l1.249 1.354a3.126 3.126 0 01.245 3.902l-.574.817-.144.207a3.036 3.036 0 011.521-.419c.109-.008.219-.008.329 0a3.092 3.092 0 012.238 1.407 3.963 3.963 0 01.442 3.227z" fill="#F7AD83"/><path d="M340.156 229.748l-.064.106-3.041 3.923c.128-.435 6.05-19.812 1.382-22.865 4.891 2.692 2.201 16.579 1.723 18.836zm12.344-.558l-5.587 5.601s-.532-1.895 3.041-5.622c3.487-3.647 17.411-16.924 15.911-23.517 2.148 8.716-12.929 23.113-13.365 23.538zm6.486 2.984a3.832 3.832 0 01-.595 2.07l-6.055 5.914s-.319-1.561 1.812-3.934c2.058-2.283 4.721-6.137 1.787-7.867a3.49 3.49 0 011.967 1.13l.143.16a3.8 3.8 0 01.941 2.527zm4.647 7.74l-.58.817-5.263 5.144s-.33-1.555 1.813-3.928c2.041-2.267 4.678-6.095 1.834-7.841.258.14.493.319.696.531l1.244 1.354a3.135 3.135 0 01.256 3.923zm3.832 5.207a18.024 18.024 0 01-.972 2.655c-4.785 10.681-20.574 25.396-20.574 25.396-4.498 17.487-9.431 33.169-14.386 46.976a512.87 512.87 0 01-1.919 5.245c-.261.696-.532 1.386-.771 2.071-.383 1.008-.755 1.996-1.133 2.983l-.303.786c-.191.531-.388 1.014-.584 1.513a467.305 467.305 0 01-2.334 5.839c-.431 1.062-.867 2.124-1.297 3.186-.048.116-.096.223-.139.334a346.257 346.257 0 01-3.615 8.414c-1.595 3.626-3.189 7.024-4.673 10.198a336.44 336.44 0 01-6.852 13.601c-3.461 6.482-10.468 10.453-17.725 11.525a24.739 24.739 0 01-12.115-1.12c3.286.92 6.772.844 10.015-.218 5.051-1.592 9.963-5.473 13.929-11.679 2.589-4.05 5.226-8.738 7.847-13.802a342.538 342.538 0 004.784-9.742 405.004 405.004 0 003.637-7.92l.127-.282c.287-.642.574-1.274.856-1.921l.532-1.2a583.401 583.401 0 003.854-9.025c.943-2.24 1.861-4.471 2.754-6.694 3.945-9.736 7.512-19.164 10.436-27.154 4.885-13.388 7.974-22.742 7.974-22.742s.202-4.411 1.111-6.243c.909-1.831 14.96-13.075 18.905-18.235a.082.082 0 00.032-.043c3.902-5.117-.16-7.203-.16-7.203l.043-.059a3.102 3.102 0 012.238 1.407 3.966 3.966 0 01.478 3.153zm-73.38 73.472l-.042 1.417-.383 13.548s-2.6 4.019-5.125 8.388a76.96 76.96 0 00-3.722 7.124 58.74 58.74 0 002.345-7.581c1.462-6.147 2.398-14.498-.585-21.516a18.56 18.56 0 00-.893-1.853h2.472l.957.038c.696.031 1.404.074 2.127.138l.808.063 1.01.096 1.031.138z" fill="#EC685A"/><path opacity=".41" d="M337.668 213.28c-.388 3.053-1.946 12.104-1.946 12.104s-5.438 10.267-5.731 21.234c-.292 10.968 1.265 17.28 1.265 17.28s-15.948 31.321-27.261 53.32c-5.019 9.757-9.128 17.662-10.532 20.173a75.124 75.124 0 01-3.471 5.643 50.596 50.596 0 01-5.572 7.028l2.749-8.573a58.74 58.74 0 01-2.345 7.581 76.96 76.96 0 013.722-7.124c2.525-4.369 5.124-8.388 5.124-8.388l8.932-17.609 26.236-51.733-.293-17.051a37.955 37.955 0 013.551-17.418l2.127-4.57 3.115-14.636a.14.14 0 01.086-.008.142.142 0 01.074.045c.207.138.43.669.17 2.702zm28.091-8.027l-25.843 24.808-2.844 3.716s1.68.35 5.178-3.361c3.498-3.71 22.031-22.163 23.509-25.163z" fill="#fff"/><path d="M596.926 424.716H106.767a4.781 4.781 0 00-4.785 4.778 4.781 4.781 0 004.785 4.778h490.159a4.781 4.781 0 004.785-4.778 4.781 4.781 0 00-4.785-4.778z" fill="#04050F"/></svg>