<svg width="600" height="571" fill="none" xmlns="http://www.w3.org/2000/svg"><path d="M269.553 14.782c41.184-35.708 178.75 4.334 215.339 39.608 45.416 43.815 58.075 91.26 36.403 154.78-18.132 52.98-146.736 113.64-184.581 154.224-79.178 84.938-169.869 70.171-264.759-4.864-39.164-36.662-70.1-137.347 119.465-246.793 46.521-24.394 42.205-65.81 78.133-96.955z" fill="#A89060"/><path d="M300 570.152c165.335 0 299.366-7.825 299.366-17.478 0-9.652-134.031-17.478-299.366-17.478-165.335 0-299.366 7.826-299.366 17.478 0 9.653 134.031 17.478 299.366 17.478z" fill="#F5F5F5"/><path d="M213.644 89.428c1.544-6.5 17.694-12.676 31.59-3.088a33.967 33.967 0 0113.124 39.032c-7.457 22.079 31.467 21.261 40.484 58.487 7.118 29.336.525 70.885-39.202 68.631-60.633-3.443-55.399-62.702-58.055-93.845-2.655-31.142-35.743-66.067 12.059-69.217z" fill="#263238"/><path d="M193.618 172.572c-.262 4.509-.787 8.631-1.374 12.908-.587 4.277-1.405 8.461-2.316 12.661-.911 4.2-1.945 8.399-3.258 12.537a115.679 115.679 0 01-4.508 12.352l-1.359 3.088c-.201.448-.571 1.127-.849 1.699-.278.571-.649 1.096-.973 1.652a47.949 47.949 0 01-4.23 5.635 97.362 97.362 0 01-9.264 9.264 172.443 172.443 0 01-20.319 15.44l-4.107-5.496c2.902-2.81 5.867-5.713 8.723-8.616 2.857-2.902 5.682-5.851 8.369-8.847a117.18 117.18 0 007.488-9.094 40.797 40.797 0 002.903-4.632c.17-.355.386-.726.525-1.065.139-.34.293-.618.463-1.127l1.05-2.718a152.724 152.724 0 006.176-22.897c.787-3.922 1.359-7.906 1.945-11.874.587-3.968 1.035-8.059 1.374-11.827l13.541.957z" fill="#FFB573"/><path d="M184.354 156.36c-5.481 1.39-9.264 23.963-9.264 23.963l20.983 14.267s8.631-26.758 4.401-32.795c-4.447-6.299-8.122-7.473-16.12-5.435z" fill="#4A607A"/><path d="M184.848 161.393l-4.215 22.759 8.492 5.759-4.277-28.518z" fill="#000"/><path d="M143.562 252.428l-14.128 2.254 8.06 8.925s8.322-1.899 9.789-7.226l-3.721-3.953zm-20.813 4.03l8.059 8.723 6.686-1.574-8.06-8.925-6.685 1.776zm91.281 279.788h-13.309l-.896-30.818h13.309l.896 30.818zm40.08.655l-13.31-.008-4.253-30.82 13.309.009 4.254 30.819z" fill="#FFB573"/><path d="M239.358 534.301l14.778-2.193a1.066 1.066 0 011.199.74l3.436 11.416a2.152 2.152 0 01-.934 2.308c-.25.159-.529.265-.822.31-5.163.673-7.693.739-14.198 1.714-3.999.599-14.25 4.044-19.776 4.869-5.526.825-6.627-4.597-4.441-5.455a45.657 45.657 0 0018.657-12.65 3.564 3.564 0 012.101-1.059z" fill="#263238"/><path d="M200.258 534.718h14.961a1.032 1.032 0 011.05.895l1.714 11.843a2.154 2.154 0 01-.542 1.653 2.148 2.148 0 01-1.589.709c-5.219-.093-7.72-.401-14.313-.401-4.045 0-12.352.416-17.988.416-5.635 0-5.882-5.512-3.566-6.021 10.437-2.239 14.544-5.327 18.049-8.276a3.444 3.444 0 012.224-.818z" fill="#263238"/><path d="M199.841 505.443l.447 15.888h13.31l-.448-15.888h-13.309zm48.287-.073l-13.248 1.426 3.907 15.568 13.232-1.43-3.891-15.564z" fill="#000"/><path d="M184.354 156.36s-6.346 2.224 6.362 80.288h54.04c-.911-22.002-.927-35.512 9.588-80.705a158.933 158.933 0 00-22.959-3.088 171.136 171.136 0 00-24.535 0c-10.545 1.097-22.496 3.505-22.496 3.505z" fill="#4A607A"/><path d="M249.882 173.838c-4.895 1.22-9.419 6.562-8.878 16.398a23.632 23.632 0 004.508 12.352c.865-7.566 2.316-16.351 4.632-27.592l-.262-1.158z" fill="#000"/><path d="M209.691 174.533s7.026 4.339 8.863 10.808c7.627-5.589 17.988-21.137 18.404-30.447a2.06 2.06 0 00-.151-.791 2.06 2.06 0 00-1.902-1.278 25.233 25.233 0 00-3.52.154l-21.694 21.554z" fill="#FAFAFA"/><path d="M209.691 174.533s-7.025 4.339-8.862 10.808c-8.199-6.006-3.644-25.831 1.05-32.424a23.735 23.735 0 014.971 0l2.841 21.616z" fill="#FAFAFA"/><path d="M228.976 125.31c-1.544 7.89-3.088 22.358 2.424 27.638a56.92 56.92 0 01-21.693 21.616c-10.947-8.739-2.841-21.616-2.841-21.616 8.801-2.1 8.569-8.646 7.041-14.776l15.069-12.862z" fill="#FFB573"/><path d="M222.8 130.56l-8.924 7.612c.385 1.425.638 2.883.756 4.354 3.366-.494 8.662-3.35 9.388-7.01.324-1.729-.911-4.138-1.22-4.956z" fill="#000"/><path d="M242.192 112.619c-3.643 12.691-4.925 18.142-12.892 23.314-11.981 7.72-26.773.494-26.989-13.031-.201-12.183 5.805-30.88 19.547-33.212a18.002 18.002 0 0120.334 22.929z" fill="#FFB573"/><path d="M214.787 90.817c.602 4.293 24.101 18.096 28.564 10.901 4.462-7.195-1.961-12.615-11.966-13.989a25.337 25.337 0 00-16.598 3.088z" fill="#263238"/><path d="M230.103 93.149c-2.887 3.798 3.227 31.158 11.981 28.579 8.755-2.578 8.353-11.333 2.27-19.408a23.468 23.468 0 00-14.251-9.171z" fill="#263238"/><path d="M190.715 236.679s-10.499 102.553-9.603 143.083c.911 42.213 16.382 138.496 16.382 138.496h17.987s-2.841-93.813-1.25-135.269c1.729-45.193 16.088-146.31 16.088-146.31h-39.604z" fill="#DDD0A4"/><path d="M245.419 235.784s10.5 102.552 9.604 143.082c-.911 42.213-.942 138.497-.942 138.497h-17.987s-10.206-93.211-14.19-135.27c-4.352-45.949-16.088-146.309-16.088-146.309h39.603z" fill="#DDD0A4"/><path d="M217.01 518.891h-21.106l-1.544-6.731 23.638-.819-.988 7.55z" fill="#263238"/><path d="M213.804 265.291c-13.278 26.696-2.671 75.409 2.023 93.535 2.409-27.22 6.469-60.494 9.635-84.92-2.023-13.834-5.543-20.936-11.658-8.615z" fill="#000"/><path d="M255.782 519.852l-22.513-.021-2.395-7.07 26.488-1.171-1.58 8.262zM55.446 101.085a90.79 90.79 0 005.23 140.262 90.79 90.79 0 00100.691 6.139 90.79 90.79 0 0044.204-90.678 90.792 90.792 0 00-21.973-47.91 90.804 90.804 0 00-128.152-7.813zm110.813 125.218A76.412 76.412 0 1164.993 111.849 76.412 76.412 0 01166.26 226.303z" fill="#263238"/><path d="M111.354 238.98a70.04 70.04 0 01-61.996-47.059 70.037 70.037 0 11136.108-18.577 70.05 70.05 0 01-74.112 65.636z" fill="#4A607A"/><path d="M119.877 99.17h-1.313l-72.753 64.385-.093 1.313a69.742 69.742 0 0011.519 42.923l103.803-91.976a69.755 69.755 0 00-41.163-16.645zm47.941 23.222l-104.884 92.81A69.458 69.458 0 0074.73 226.01l102.306-90.587a70.03 70.03 0 00-9.218-13.031z" fill="#FAFAFA"/><path d="M187.056 237.745l-11.95 10.576a4.39 4.39 0 01-3.165 1.09 4.39 4.39 0 01-3.011-1.46 4.414 4.414 0 01.37-6.176l11.951-10.577a4.388 4.388 0 016.176.386 4.37 4.37 0 01-.371 6.161z" fill="#263238"/><path d="M182.656 235.784c9.001 7.92 17.617 16.196 26.124 24.58 8.508 8.384 16.814 16.984 25.029 25.538 8.214 8.554 16.273 17.385 24.271 26.248 7.504 9.264 17.725 16.119 19.254 30.664a7.354 7.354 0 01-2.442 6.265 7.364 7.364 0 01-6.513 1.671c-14.267-3.289-19.81-14.267-28.086-22.851a1526.981 1526.981 0 01-23.067-27.267 1058.081 1058.081 0 01-22.311-27.962c-7.288-9.45-14.452-19.007-21.23-28.904a6.033 6.033 0 01.892-8.03 6.032 6.032 0 018.079.048zm38.26-124.308c-.231 1.05-.972 1.776-1.667 1.544-.695-.231-1.05-1.127-.819-2.161.232-1.035.973-1.776 1.668-1.544.695.231 1.05 1.111.818 2.161zm-11.842-2.625c-.232 1.05-.988 1.776-1.668 1.622-.679-.155-1.05-1.127-.818-2.177.232-1.05.973-1.776 1.668-1.622.694.155 1.049 1.128.818 2.177z" fill="#263238"/><path d="M208.549 106.798l-2.363-1.281s.85 2.254 2.363 1.281z" fill="#263238"/><path d="M212.301 111.554a28.808 28.808 0 01-5.219 5.851 4.63 4.63 0 003.582 1.544l1.637-7.395z" fill="#ED893E"/><path d="M215.466 124.307a9.939 9.939 0 01-1.544-.232.312.312 0 01-.193-.137.303.303 0 01-.042-.113.303.303 0 01.141-.313.318.318 0 01.112-.043.329.329 0 01.121.004 8.54 8.54 0 007.488-1.745.331.331 0 01.238-.147.315.315 0 01.265.093c.034.034.06.075.076.121a.317.317 0 01-.03.279.328.328 0 01-.101.102 8.9 8.9 0 01-6.531 2.131z" fill="#263238"/><path d="M243.042 125.28a9.642 9.642 0 01-6.176 4.06c-3.335.618-4.632-2.439-3.505-5.419 1.05-2.687 4.076-6.176 7.288-5.497a4.339 4.339 0 012.393 6.856z" fill="#FFB573"/><path d="M225.888 106.86a.637.637 0 01-.695-.232c-1.714-2.362-5.481-2.331-5.512-2.331a.634.634 0 01-.633-.633.616.616 0 01.618-.633c.185 0 4.446 0 6.546 2.856a.632.632 0 01-.139.88l-.185.093zm-19.285-6.686a.651.651 0 01-.524-.34.63.63 0 01.277-.849 6.32 6.32 0 015.76-.108.648.648 0 01.231.865.634.634 0 01-.864.231 5.024 5.024 0 00-4.555.139.804.804 0 01-.325.062z" fill="#263238"/><path d="M232.716 537.038l-.185-.076a1.789 1.789 0 01-.756-1.577 1.045 1.045 0 01.481-.971c1.426-.918 5.82 1.064 6.309 1.297a.282.282 0 01.181.291.323.323 0 01-.2.285c-1.545.636-4.377 1.562-5.83.751zm4.94-1.065c-1.786-.731-4.254-1.507-5-1.029a.477.477 0 00-.182.443 1.224 1.224 0 00.482 1.065c.739.519 2.475.312 4.7-.479z" fill="#4A607A"/><path d="M237.899 536.073c-1.453-.811-3.784-2.983-3.664-4.336a1.092 1.092 0 01.92-1.024 1.642 1.642 0 011.38.214c1.618 1.062 2.201 4.855 2.234 5.018a.345.345 0 01-.026.156.348.348 0 01-.091.13.326.326 0 01-.316.038 2.63 2.63 0 01-.437-.196zm-1.778-4.665a1.066 1.066 0 00-.796-.092c-.394.106-.455.297-.451.449-.047.932 1.752 2.853 3.157 3.661-.254-1.255-.868-3.341-1.83-3.968l-.08-.05zm-40.851 5.625a4.954 4.954 0 01-3.227-.818 1.733 1.733 0 01-.571-1.544.988.988 0 01.525-.834c1.637-.911 6.948 1.807 7.535 2.115a.328.328 0 01.17.325.289.289 0 01-.079.173.292.292 0 01-.168.089 21.902 21.902 0 01-4.185.494zm-2.377-2.748a1.246 1.246 0 00-.587.108.437.437 0 00-.216.34 1.186 1.186 0 00.37 1.019c.803.725 2.996.849 5.945.355a17.334 17.334 0 00-5.512-1.822z" fill="#4A607A"/><path d="M199.393 536.57h-.124c-1.544-.71-4.724-3.582-4.477-5.095 0-.355.309-.803 1.173-.895a2.257 2.257 0 011.745.556c1.683 1.389 1.992 4.971 1.992 5.126a.282.282 0 01-.124.278c-.056.03-.122.041-.185.03zm-3.165-5.403h-.201c-.571 0-.602.293-.618.37-.154.896 1.977 3.165 3.598 4.138a7.29 7.29 0 00-1.698-4.107 1.546 1.546 0 00-1.081-.401z" fill="#4A607A"/><path d="M220.391 109.438l-2.362-1.297s.849 2.254 2.362 1.297z" fill="#263238"/><path d="M245.574 233.499l1.374 4.832c.185.386-.247.772-.88.772h-55.692c-.479 0-.88-.247-.911-.556l-.494-4.832c0-.34.386-.618.926-.618h54.735a.974.974 0 01.942.402z" fill="#4A607A"/><path d="M245.574 233.499l1.374 4.832c.185.386-.247.772-.88.772h-55.692c-.479 0-.88-.247-.911-.556l-.494-4.832c0-.34.386-.618.926-.618h54.735a.974.974 0 01.942.402z" fill="#000"/><path d="M238.039 239.613h1.467c.293 0 .509-.139.494-.324l-.695-6.284c0-.186-.278-.34-.556-.34h-1.544c-.293 0-.525.154-.494.34l.68 6.284c.092.185.355.324.648.324z" fill="#4A607A"/><path d="M238.039 239.613h1.467c.293 0 .509-.139.494-.324l-.695-6.284c0-.186-.278-.34-.556-.34h-1.544c-.293 0-.525.154-.494.34l.68 6.284c.092.185.355.324.648.324z" fill="#fff"/><path d="M194.56 239.613h1.467c.293 0 .51-.139.494-.324l-.679-6.284c0-.186-.278-.34-.572-.34h-1.466c-.294 0-.51.154-.494.34l.679 6.284c.031.185.278.324.571.324z" fill="#4A607A"/><path d="M194.56 239.613h1.467c.293 0 .51-.139.494-.324l-.679-6.284c0-.186-.278-.34-.572-.34h-1.466c-.294 0-.51.154-.494.34l.679 6.284c.031.185.278.324.571.324z" fill="#fff"/><path d="M216.207 239.613h1.544c.294 0 .51-.139.494-.324l-.679-6.284c0-.186-.278-.34-.571-.34h-1.467c-.294 0-.51.154-.494.34l.679 6.284c-.046.185.201.324.494.324z" fill="#4A607A"/><path d="M216.207 239.613h1.544c.294 0 .51-.139.494-.324l-.679-6.284c0-.186-.278-.34-.571-.34h-1.467c-.294 0-.51.154-.494.34l.679 6.284c-.046.185.201.324.494.324z" fill="#fff"/><path d="M212.285 247.456l-13.124-5.867 3.737 13.016s8.337 1.884 11.966-2.3l-2.579-4.849z" fill="#FFB573"/><path d="M260.643 172.001c.602 4.555 1.081 9.14 1.621 13.695l1.39 13.742c.494 4.632.865 9.156 1.297 13.741l.571 6.871.155 1.729v2.919a14.668 14.668 0 01-1.838 5.573 23.22 23.22 0 01-6.176 6.763 47.836 47.836 0 01-6.608 4.184 91.07 91.07 0 01-13.448 5.636c-4.524 1.544-9.063 2.826-13.618 3.968a150.964 150.964 0 01-13.819 2.81l-1.544-6.562c4.246-1.405 8.585-2.841 12.8-4.462 4.215-1.621 8.43-3.212 12.475-5.049a95.735 95.735 0 0011.549-6.021 36.207 36.207 0 004.848-3.505 11.834 11.834 0 002.919-3.49 2.01 2.01 0 00.247-.957v-.463l-1.236-8.539c-.602-4.632-1.281-9.125-1.837-13.695l-1.745-13.695c-.494-4.632-1.065-9.141-1.544-13.726l13.541-1.467z" fill="#FFB573"/><path d="M254.344 155.974c5.404 1.637 11.919 20.288 11.919 20.288l-18.944 19.501s-9.728-20.072-7.458-27.051c2.378-7.288 8.307-14.621 14.483-12.738z" fill="#4A607A"/><path d="M188.307 244.291l3.706 10.716 10.885-.402-3.737-13.016-10.854 2.702z" fill="#FFB573"/></svg>