<svg width="320" height="460" fill="none" xmlns="http://www.w3.org/2000/svg"><g filter="url(#filter0_d_4707_685)"><path d="M124 16c2.049 0 8.49 1.5 10.167 11 1.676 9.5 2.794 13.5 15.833 13.5h140c7.18 0 13 5.82 13 13V427c0 7.18-5.82 13-13 13H31c-7.18 0-13-5.82-13-13V45.157a4.657 4.657 0 014.657-4.657h74.51c13.225 0 14.157-4 15.833-13.5 1.676-9.5 8.951-11 11-11z" fill="#fff"/></g><defs><filter id="filter0_d_4707_685" x="0" y="0" width="321" height="460" filterUnits="userSpaceOnUse" color-interpolation-filters="sRGB"><feFlood flood-opacity="0" result="BackgroundImageFix"/><feColorMatrix in="SourceAlpha" values="0 0 0 0 0 0 0 0 0 0 0 0 0 0 0 0 0 0 127 0" result="hardAlpha"/><feOffset dy="2"/><feGaussianBlur stdDeviation="9"/><feColorMatrix values="0 0 0 0 0.160784 0 0 0 0 0.160784 0 0 0 0 0.160784 0 0 0 0.1 0"/><feBlend in2="BackgroundImageFix" result="effect1_dropShadow_4707_685"/><feBlend in="SourceGraphic" in2="effect1_dropShadow_4707_685" result="shape"/></filter></defs></svg>