<svg width="48" height="62" fill="none" xmlns="http://www.w3.org/2000/svg"><path d="M47.081 15.063L32.551.533A1.819 1.819 0 0031.265 0H5.836a5.455 5.455 0 00-5.45 5.45v51.1A5.455 5.455 0 005.837 62h36.328a5.455 5.455 0 005.45-5.45V16.349c0-.496-.209-.96-.533-1.285zM33.082 6.202l8.33 8.33h-6.514a1.818 1.818 0 01-1.816-1.817V6.202zm9.082 52.165H5.836a1.819 1.819 0 01-1.816-1.816V5.449c0-1.001.814-1.816 1.816-1.816h23.613v9.082a5.455 5.455 0 005.45 5.45h9.081V56.55a1.819 1.819 0 01-1.816 1.816z" fill="#000"/><path d="M34.898 25.672H13.102a1.816 1.816 0 100 3.633h21.796a1.816 1.816 0 000-3.633zm0 7.266H13.102a1.816 1.816 0 000 3.632h21.796a1.816 1.816 0 000-3.633zm0 7.265H13.102a1.816 1.816 0 000 3.633h21.796a1.816 1.816 0 100-3.633zm-7.265 7.266H13.102a1.816 1.816 0 100 3.633h14.53a1.816 1.816 0 000-3.633z" fill="#DDD0A4"/></svg>