<svg width="55" height="55" fill="none" xmlns="http://www.w3.org/2000/svg"><path d="M27.5 55C42.663 55 55 42.664 55 27.5c0-2.617-.365-5.197-1.089-7.667a2.29 2.29 0 10-4.399 1.287c.6 2.052.905 4.2.905 6.38 0 12.636-10.28 22.917-22.917 22.917-12.636 0-22.917-10.28-22.917-22.917 0-12.636 10.28-22.917 22.917-22.917 4.592 0 9.01 1.343 12.777 3.883a2.292 2.292 0 002.563-3.8C38.313 1.614 33.01 0 27.5 0 12.337 0 0 12.336 0 27.5S12.337 55 27.5 55z" fill="#000"/><path d="M51.088 5.255L27.5 28.842l-7.546-7.545a2.292 2.292 0 00-3.24 3.24l9.166 9.167a2.281 2.281 0 001.62.671c.587 0 1.172-.223 1.62-.671L54.33 8.496a2.292 2.292 0 00-3.24-3.241z" fill="#DDD0A4"/></svg>