<svg width="58" height="58" fill="none" xmlns="http://www.w3.org/2000/svg"><path d="M45.838 35.929c-1.187-1.236-2.62-1.898-4.137-1.898-1.506 0-2.95.65-4.187 1.886l-3.868 3.856c-.318-.172-.636-.33-.943-.49-.44-.22-.857-.428-1.212-.649-3.623-2.301-6.916-5.3-10.074-9.18-1.53-1.935-2.559-3.563-3.305-5.216 1.004-.918 1.934-1.872 2.84-2.79.342-.343.685-.698 1.028-1.041 2.57-2.57 2.57-5.9 0-8.471l-3.342-3.342c-.38-.38-.771-.771-1.138-1.163a57.73 57.73 0 00-2.302-2.277c-1.187-1.175-2.607-1.8-4.1-1.8-1.494 0-2.938.625-4.163 1.8l-.024.025-4.162 4.198C1.182 10.944.289 12.854.093 15.07c-.294 3.574.759 6.904 1.566 9.083 1.984 5.35 4.946 10.307 9.365 15.62 5.362 6.402 11.813 11.457 19.182 15.02 2.816 1.334 6.574 2.913 10.772 3.182.258.013.527.025.772.025 2.828 0 5.202-1.016 7.063-3.036.012-.024.037-.037.049-.061.636-.771 1.371-1.47 2.142-2.216a48.268 48.268 0 001.592-1.579c1.211-1.26 1.848-2.73 1.848-4.235 0-1.518-.649-2.975-1.885-4.2l-6.72-6.744zm4.383 12.89c-.012 0-.012.012 0 0-.478.514-.967.98-1.494 1.493-.795.76-1.603 1.555-2.362 2.449-1.237 1.322-2.693 1.946-4.603 1.946-.184 0-.38 0-.563-.012-3.636-.233-7.014-1.653-9.548-2.865-6.929-3.354-13.013-8.116-18.069-14.15-4.174-5.032-6.965-9.683-8.813-14.678-1.139-3.048-1.555-5.423-1.371-7.663.122-1.432.673-2.62 1.69-3.636L9.26 7.53c.6-.563 1.237-.87 1.861-.87.771 0 1.396.466 1.787.858l.037.036c.747.698 1.457 1.42 2.203 2.192.38.391.772.783 1.163 1.187l3.342 3.342c1.298 1.298 1.298 2.497 0 3.795-.355.355-.698.71-1.053 1.053-1.028 1.052-2.007 2.032-3.072 2.986-.025.025-.05.037-.061.062-1.053 1.052-.857 2.08-.637 2.778l.037.11c.869 2.106 2.093 4.09 3.954 6.452l.012.012c3.379 4.162 6.94 7.406 10.87 9.89.502.32 1.016.576 1.506.821.44.22.857.428 1.212.649.049.024.098.061.147.086.416.208.808.306 1.212.306 1.016 0 1.652-.637 1.86-.845l4.187-4.187c.416-.416 1.077-.918 1.848-.918.76 0 1.384.478 1.763.894l.025.024 6.745 6.745c1.26 1.249 1.26 2.534.012 3.832z" fill="#000"/><path d="M31.345 13.797c3.207.538 6.12 2.056 8.446 4.382a15.604 15.604 0 014.383 8.447 1.642 1.642 0 001.628 1.37c.098 0 .183-.012.281-.024a1.654 1.654 0 001.359-1.91 18.882 18.882 0 00-5.3-10.221 18.882 18.882 0 00-10.222-5.3 1.661 1.661 0 00-1.91 1.346c-.159.894.429 1.763 1.335 1.91zm26.588 11.788c-1.09-6.39-4.101-12.205-8.728-16.832C44.578 4.126 38.763 1.115 32.373.025c-.894-.159-1.738.453-1.897 1.347a1.66 1.66 0 001.358 1.91c5.705.966 10.907 3.672 15.045 7.797 4.137 4.138 6.83 9.34 7.797 15.045a1.642 1.642 0 001.629 1.37c.098 0 .183-.012.281-.024a1.622 1.622 0 001.347-1.885z" fill="#DDD0A4"/></svg>