<svg width="40" height="40" fill="none" xmlns="http://www.w3.org/2000/svg"><circle cx="20" cy="20" r="20" fill="#fff"/><path d="M9.35 20.374l4.599 1.715 1.792 5.767c.078.39.546.467.858.233l2.571-2.104c.234-.233.624-.233.935 0l4.599 3.351c.311.234.779.078.857-.311l3.429-16.366c.078-.39-.312-.78-.701-.624L9.35 19.361c-.468.156-.468.857 0 1.013zm6.158.857l9.04-5.533c.156-.078.312.156.156.234L17.3 22.868c-.234.234-.468.546-.468.935l-.233 1.87c0 .234-.39.312-.468 0l-.935-3.428c-.234-.39-.078-.858.312-1.014z" fill="#A89060"/></svg>