<svg width="59" height="59" fill="none" xmlns="http://www.w3.org/2000/svg"><path d="M54.5.875H5A4.125 4.125 0 00.875 5v49.5A4.125 4.125 0 005 58.625h49.5a4.125 4.125 0 004.125-4.125V5A4.125 4.125 0 0054.5.875zm-2.75 38.5H49V51.75a1.375 1.375 0 01-1.375 1.375h-5.5a1.375 1.375 0 01-1.375-1.375V39.375H38a1.375 1.375 0 01-1.166-2.104l6.875-11a1.429 1.429 0 012.337 0l6.876 11a1.376 1.376 0 01-1.172 2.104z" fill="url(#paint0_linear_68_305)"/><defs><linearGradient id="paint0_linear_68_305" x1="29.75" y1=".875" x2="29.75" y2="58.625" gradientUnits="userSpaceOnUse"><stop stop-color="#EEF2F5"/><stop offset="1" stop-color="#FAFBFC"/></linearGradient></defs></svg>