<svg width="71" height="70" fill="none" xmlns="http://www.w3.org/2000/svg"><path d="M67.523 49.895l-31.81 5.3a10.974 10.974 0 00-12.218-7.932L12.714 1.437A1.375 1.375 0 0011.179.39L1.554 1.766a1.375 1.375 0 10.39 2.72l8.38-1.196 10.519 44.703a11 11 0 1015.282 10.132c0-.07-.01-.137-.011-.207l31.862-5.31a1.375 1.375 0 00-.453-2.713zm-42.398 16.48a8.25 8.25 0 118.25-8.25 8.258 8.258 0 01-8.25 8.25z" fill="#0074D4"/><path d="M32.274 25.1L52.9 20.973a1.375 1.375 0 001.073-1.624L51.222 5.6a1.375 1.375 0 00-1.623-1.072L28.974 8.653a1.375 1.375 0 00-1.072 1.622l2.75 13.75a1.376 1.376 0 001.622 1.074zM48.8 7.5l2.212 11.053-17.933 3.58-2.211-11.053L48.8 7.5zm17.552 15.997a1.375 1.375 0 00-1.587-1.1l-31.625 5.5a1.376 1.376 0 00-1.115 1.609l4.125 22a1.375 1.375 0 001.586 1.1l31.625-5.5a1.374 1.374 0 001.117-1.609l-4.126-22zM38.6 49.663l-3.618-19.296L63.9 25.338l3.619 19.297-28.92 5.029z" fill="#0074D4"/></svg>