<svg width="88" height="88" fill="none" xmlns="http://www.w3.org/2000/svg"><path d="M84.427 78.257a1.38 1.38 0 01-1.116 0l-5.636-2.502-5.631 2.502a1.378 1.378 0 01-1.117 0L65.3 75.754l-5.625 2.501a1.373 1.373 0 01-1.117 0l-5.626-2.501-5.627 2.501a1.373 1.373 0 01-1.117 0l-1.502-.667V82.5a4.13 4.13 0 004.126 4.125h33a4.13 4.13 0 004.124-4.125v-4.914l-1.51.671z" fill="url(#paint0_linear_68_321)"/><path d="M84.21 46.184l-16.5-11.785a4.124 4.124 0 00-4.795-.001l-16.5 11.785v.001a4.135 4.135 0 00-1.727 3.356v22.29l2.06.916 5.626-2.502a1.372 1.372 0 011.117 0l5.627 2.502 5.624-2.502a1.371 1.371 0 011.118 0l5.625 2.502 5.631-2.503a1.381 1.381 0 011.117 0l5.636 2.503 2.068-.919V49.54a4.135 4.135 0 00-1.727-3.356zm-18.897-6.309a4.813 4.813 0 11-4.813 4.813 4.818 4.818 0 014.813-4.813zM79.063 66h-27.5a1.375 1.375 0 110-2.75h27.5a1.375 1.375 0 010 2.75zm0-8.25h-27.5a1.375 1.375 0 110-2.75h27.5a1.375 1.375 0 010 2.75z" fill="url(#paint1_linear_68_321)"/><path d="M67.457 32.776a12.403 12.403 0 00-4.454-13.833 9.557 9.557 0 01-3.465-4.812 12.244 12.244 0 00-11.662-8.548 9.422 9.422 0 01-5.606-1.838 12.144 12.144 0 00-14.415 0 9.422 9.422 0 01-5.606 1.838 12.244 12.244 0 00-11.663 8.549 9.558 9.558 0 01-3.464 4.811 12.402 12.402 0 00-4.454 13.833 9.642 9.642 0 010 5.947 12.402 12.402 0 004.454 13.833 9.558 9.558 0 013.464 4.812 12.243 12.243 0 0011.663 8.549 9.422 9.422 0 015.606 1.837 12.144 12.144 0 0014.415 0 9.422 9.422 0 015.606-1.837 12.244 12.244 0 0011.662-8.55 9.557 9.557 0 013.465-4.81 12.402 12.402 0 004.454-13.834 9.641 9.641 0 010-5.947zm-2.592 6.797a9.646 9.646 0 01-3.464 10.759 12.294 12.294 0 00-4.455 6.186 9.523 9.523 0 01-9.07 6.65 12.112 12.112 0 00-7.208 2.362 9.445 9.445 0 01-11.211 0 12.112 12.112 0 00-7.208-2.363 9.524 9.524 0 01-9.07-6.65 12.294 12.294 0 00-4.455-6.185A9.645 9.645 0 015.26 39.573a12.408 12.408 0 000-7.647 9.645 9.645 0 013.464-10.758 12.293 12.293 0 004.454-6.187 9.523 9.523 0 019.07-6.649 12.112 12.112 0 007.209-2.363 9.442 9.442 0 0111.211 0 12.112 12.112 0 007.208 2.363 9.523 9.523 0 019.07 6.65 12.293 12.293 0 004.455 6.186 9.646 9.646 0 013.464 10.758 12.41 12.41 0 000 7.647z" fill="#0074D4"/><path d="M28.081 52.705a1.357 1.357 0 001.784-.735l13.337-32.065a1.379 1.379 0 00-.728-1.8 1.354 1.354 0 00-1.784.735L27.353 50.906a1.38 1.38 0 00.728 1.8zm-2.025-19.633c4.001 0 7.256-3.716 7.256-8.284 0-4.567-3.255-8.284-7.256-8.284-4 0-7.255 3.716-7.255 8.284 0 4.568 3.254 8.284 7.255 8.284zm0-13.819c2.498 0 4.53 2.483 4.53 5.535s-2.032 5.535-4.53 5.535-4.53-2.483-4.53-5.535 2.032-5.535 4.53-5.535zm18.013 19.174c-4.001 0-7.256 3.716-7.256 8.284 0 4.568 3.255 8.285 7.256 8.285 4 0 7.255-3.717 7.255-8.285s-3.254-8.284-7.255-8.284zm0 13.82c-2.498 0-4.53-2.484-4.53-5.536 0-3.051 2.032-5.534 4.53-5.534s4.53 2.483 4.53 5.534c0 3.052-2.032 5.535-4.53 5.535z" fill="#0074D4"/><path d="M35.063 9.63a1.375 1.375 0 000 2.75 23.292 23.292 0 0123.162 23.37 1.363 1.363 0 102.724 0A26.034 26.034 0 0035.064 9.63zm-.001 49.49A23.293 23.293 0 0111.9 35.75a1.362 1.362 0 10-2.725 0 26.034 26.034 0 0025.887 26.12 1.375 1.375 0 000-2.75z" fill="#0074D4"/><defs><linearGradient id="paint0_linear_68_321" x1="65.313" y1="33.629" x2="65.313" y2="86.625" gradientUnits="userSpaceOnUse"><stop stop-color="#EEF2F5"/><stop offset="1" stop-color="#FAFBFC"/></linearGradient><linearGradient id="paint1_linear_68_321" x1="65.313" y1="33.629" x2="65.313" y2="86.625" gradientUnits="userSpaceOnUse"><stop stop-color="#EEF2F5"/><stop offset="1" stop-color="#FAFBFC"/></linearGradient></defs></svg>