<svg width="42" height="54" fill="none" xmlns="http://www.w3.org/2000/svg"><path d="M40.427 45.257a1.38 1.38 0 01-1.116 0l-5.636-2.502-5.631 2.502a1.378 1.378 0 01-1.117 0L21.3 42.754l-5.625 2.501a1.373 1.373 0 01-1.117 0l-5.626-2.501-5.627 2.501a1.373 1.373 0 01-1.117 0L.687 44.59v4.91a4.13 4.13 0 004.125 4.125h33a4.13 4.13 0 004.126-4.125v-4.914l-1.511.671z" fill="url(#paint0_linear_68_322)"/><path d="M40.21 13.184L23.71 1.399a4.123 4.123 0 00-4.795-.001l-16.5 11.786A4.134 4.134 0 00.686 16.54v22.29l2.06.916 5.627-2.502a1.372 1.372 0 011.117 0l5.627 2.502 5.624-2.502a1.371 1.371 0 011.118 0l5.625 2.502 5.631-2.503a1.381 1.381 0 011.117 0l5.636 2.503 2.068-.919V16.54a4.135 4.135 0 00-1.727-3.356zM21.312 6.875a4.813 4.813 0 110 9.625 4.813 4.813 0 010-9.625zM35.063 33h-27.5a1.375 1.375 0 110-2.75h27.5a1.375 1.375 0 010 2.75zm0-8.25h-27.5a1.375 1.375 0 110-2.75h27.5a1.375 1.375 0 010 2.75z" fill="url(#paint1_linear_68_322)"/><defs><linearGradient id="paint0_linear_68_322" x1="21.313" y1=".629" x2="21.313" y2="53.625" gradientUnits="userSpaceOnUse"><stop stop-color="#EEF2F5"/><stop offset="1" stop-color="#FAFBFC"/></linearGradient><linearGradient id="paint1_linear_68_322" x1="21.313" y1=".629" x2="21.313" y2="53.625" gradientUnits="userSpaceOnUse"><stop stop-color="#EEF2F5"/><stop offset="1" stop-color="#FAFBFC"/></linearGradient></defs></svg>