<svg width="49" height="67" fill="none" xmlns="http://www.w3.org/2000/svg"><path d="M44.125 54v-1.163c0-2.187-.594-4.333-1.719-6.208a9.283 9.283 0 01-.785-7.927l1.678-4.699A23.715 23.715 0 0027.956 3.366C18.263.375 18.263.375 18 .375a1.375 1.375 0 00-1.375 1.375v4.784c-1.723 1.204-6.86 4.793-10.175 7.073a8.34 8.34 0 00-3.597 6.843 4.688 4.688 0 004.813 4.738 4.7 4.7 0 004.262-2.699l4.576.572a6.24 6.24 0 003.509-.586 7.798 7.798 0 01-2.6 7.384l-6.827 5.775A17.843 17.843 0 004.25 49.277V54a4.125 4.125 0 00-4.125 4.125V65A1.375 1.375 0 001.5 66.375h45.375A1.375 1.375 0 0048.25 65v-6.875A4.125 4.125 0 0044.125 54zm-5.05-38.537a20.92 20.92 0 011.633 17.615l-1.67 4.697a12.02 12.02 0 001.017 10.267 9.322 9.322 0 011.32 4.795V54h-2.75a12.176 12.176 0 00-1.273-5.622c-.275-.862-3.117-4.433-1.25-9.286l1.908-4.962A20.075 20.075 0 0025.623 7.882l-.993-.33L23.924 5l3.221.994a20.915 20.915 0 0111.93 9.47zM7 49.277a15.098 15.098 0 015.356-11.55l6.827-5.775a10.568 10.568 0 003.143-11.439 6.24 6.24 0 001.174-3.638 1.375 1.375 0 00-2.75 0 3.48 3.48 0 01-3.912 3.454l-4.576-.567a2.773 2.773 0 00-2.832 1.564 1.917 1.917 0 01-1.837 1.115 1.94 1.94 0 01-1.989-2.07 5.537 5.537 0 012.397-4.493 1937.9 1937.9 0 0010.787-7.496 1.375 1.375 0 00.587-1.132V3.602l1.429.437 1.375 4.95a1.375 1.375 0 00.89.938l1.69.563a17.325 17.325 0 0110.688 22.65l-1.91 4.965C31.2 44.2 34.654 48.83 34.895 49.607a9.443 9.443 0 01.98 4.393H7v-4.723zm38.5 14.348H2.875v-5.5A1.375 1.375 0 014.25 56.75h39.875a1.375 1.375 0 011.375 1.375v5.5z" fill="#0074D4"/></svg>