<svg width="49" height="70" fill="none" xmlns="http://www.w3.org/2000/svg"><path d="M44.75 57.25h-.778l-1.95-28.6 3.965-7.91a1.38 1.38 0 00.138-.615V2.25A1.375 1.375 0 0044.75.875h-9.625A1.375 1.375 0 0033.75 2.25v5.5H31v-5.5A1.375 1.375 0 0029.625.875H20a1.375 1.375 0 00-1.375 1.375v5.5h-2.75v-5.5A1.375 1.375 0 0014.5.875H4.875A1.375 1.375 0 003.5 2.25v17.875c0 .213.05.424.144.615l3.959 7.91-1.95 28.6h-.778A4.125 4.125 0 00.75 61.375v6.875a1.375 1.375 0 001.375 1.375H47.5a1.375 1.375 0 001.375-1.375v-6.875a4.125 4.125 0 00-4.125-4.125zm-1.537-37.125L39.775 27H9.85l-3.438-6.875h36.8zm2.912 46.75H3.5v-5.5A1.375 1.375 0 014.875 60H44.75a1.375 1.375 0 011.375 1.375v5.5z" fill="url(#paint0_linear_68_315)"/><defs><linearGradient id="paint0_linear_68_315" x1="24.813" y1=".875" x2="24.813" y2="69.625" gradientUnits="userSpaceOnUse"><stop stop-color="#EEF2F5"/><stop offset="1" stop-color="#FAFBFC"/></linearGradient></defs></svg>