<svg width="492" height="492" viewBox="0 0 492 492" fill="none" xmlns="http://www.w3.org/2000/svg">
<g filter="url(#filter0_dd_60_1818)">
<path opacity="0.9" d="M48.9442 247.781C25.8694 328.134 175.28 366.048 255.122 354.338C356.129 339.578 413.064 284.474 411.519 199.604C409.993 115.512 315.224 67.3351 243.825 102.789C208.638 120.264 182.867 151.989 147.767 170.134C106.105 191.732 63.3598 197.568 48.9442 247.781Z" fill="#DDD0A4"/>
<path d="M246 420.719C351.369 420.719 436.788 415.732 436.788 409.58C436.788 403.428 351.369 398.441 246 398.441C140.631 398.441 55.2123 403.428 55.2123 409.58C55.2123 415.732 140.631 420.719 246 420.719Z" fill="#A89060"/>
<path d="M161.376 99.7579C153.947 92.7814 141.696 91.4431 137.111 98.705C132.525 105.967 135.143 113.642 125.735 121.691C119.339 127.192 124.082 144.048 160.569 142.503C177.838 141.775 171.993 123.807 171.531 115.315C171.068 106.823 171.039 96.432 161.376 99.7579Z" fill="#263238"/>
<path d="M147 395.981L138.163 396.326L137.996 386.761L146.833 386.417L147 395.981Z" fill="#FDCEA4"/>
<path d="M137.612 394.495H147.6C147.776 394.494 147.947 394.552 148.085 394.661C148.223 394.771 148.319 394.924 148.358 395.096L150.089 403.017C150.129 403.21 150.125 403.41 150.078 403.601C150.03 403.792 149.94 403.97 149.815 404.122C149.689 404.274 149.531 404.396 149.352 404.479C149.173 404.562 148.978 404.604 148.781 404.601C145.288 404.542 143.595 404.335 139.197 404.335C136.491 404.335 129.475 404.621 125.735 404.621C121.996 404.621 121.524 400.921 123.049 400.586C129.937 399.081 133.942 397.014 136.146 395.037C136.55 394.68 137.073 394.487 137.612 394.495Z" fill="#263238"/>
<path opacity="0.2" d="M137.996 386.771L138.075 391.219L146.911 390.835L146.833 386.427L137.996 386.771Z" fill="black"/>
<path d="M124.968 203.344C123 213.951 125.263 265.798 128.264 288.696C132.259 319.101 136.392 389.703 136.392 389.703L148.2 388.995C148.2 388.995 151.152 314.644 148.741 290.231C150.109 258.812 153.494 203.934 153.494 203.934L124.968 203.344Z" fill="#4A607A"/>
<path opacity="0.2" d="M151.536 238.128C151.949 230.167 146.311 223.092 144.038 238.128C142.601 247.683 145.573 264.43 149.47 276.258C150.07 263.948 150.837 250.241 151.536 238.128Z" fill="black"/>
<path d="M211.924 366.235L206.177 371.726L198.394 363.381L204.131 357.9L211.924 366.235Z" fill="#FDCEA4"/>
<path d="M204.672 371.873L210.576 363.785C210.672 363.644 210.818 363.546 210.985 363.509C211.151 363.472 211.325 363.501 211.471 363.588L218.359 367.642C218.529 367.755 218.674 367.9 218.786 368.07C218.898 368.24 218.975 368.431 219.012 368.631C219.049 368.831 219.045 369.037 219 369.236C218.956 369.434 218.872 369.622 218.753 369.787C216.657 372.572 215.506 373.802 212.918 377.364C211.324 379.549 209.484 382.56 207.289 385.59C205.095 388.621 202.094 386.446 202.743 384.98C205.695 378.397 204.446 376.567 204.288 373.428C204.238 372.881 204.373 372.334 204.672 371.873Z" fill="#263238"/>
<path opacity="0.2" d="M198.394 363.391L202.409 367.681L208.106 362.151L204.141 357.9L198.394 363.391Z" fill="black"/>
<path d="M138.665 203.629C138.665 203.629 151.379 270.541 154.685 296.519C156.653 312.036 200.047 367.868 200.047 367.868L207.457 360.065C207.457 360.065 191.575 319.19 172.446 294.944C171.688 266.526 174.916 219.747 163.934 204.15L138.665 203.629Z" fill="#4A607A"/>
<path d="M127.507 152.323C127.507 158.07 127.241 163.708 126.818 169.405C126.395 175.103 125.834 180.771 124.919 186.478L124.752 187.55L124.525 188.761C124.355 189.554 124.168 190.332 123.964 191.093C123.531 192.598 122.98 194.045 122.488 195.442C121.412 198.182 120.19 200.862 118.828 203.472C116.146 208.574 113.09 213.471 109.687 218.123C109.327 218.606 108.802 218.938 108.213 219.057C107.623 219.176 107.011 219.074 106.492 218.769C105.974 218.464 105.586 217.978 105.404 217.405C105.222 216.832 105.258 216.212 105.505 215.663V215.604C107.817 210.606 110.06 205.479 112.019 200.401C113.003 197.863 113.878 195.294 114.626 192.775C114.98 191.516 115.295 190.266 115.541 189.046C115.669 188.436 115.758 187.836 115.846 187.245L115.945 186.37L116.043 185.386C116.545 179.934 116.84 174.404 117.116 168.864C117.391 163.324 117.519 157.735 117.677 152.244V152.195C117.697 150.89 118.236 149.647 119.173 148.739C120.111 147.831 121.37 147.333 122.675 147.354C123.98 147.375 125.223 147.913 126.131 148.851C127.039 149.788 127.537 151.048 127.517 152.353L127.507 152.323Z" fill="#FDCEA4"/>
<path d="M124.299 145.13C112.215 148.663 113.77 170.645 113.77 170.645L130.951 175.27C130.951 175.27 133.804 159.172 133.548 153.396C133.293 147.393 130.961 143.192 124.299 145.13Z" fill="#4A607A"/>
<path d="M106.784 214.394L100.732 219.54L109.214 223.004C109.214 223.004 111.841 218.999 110.621 215.201L106.784 214.394Z" fill="#FDCEA4"/>
<path d="M101.805 227.393L105.672 227.875C106.101 227.928 106.537 227.839 106.91 227.62C107.284 227.401 107.575 227.065 107.738 226.664L109.214 223.004L100.732 219.54L100.092 225.218C100.034 225.733 100.181 226.25 100.502 226.657C100.822 227.064 101.29 227.329 101.805 227.393Z" fill="#FDCEA4"/>
<path d="M120.392 150.847C119.851 172.889 124.919 188.977 124.978 203.344L163.934 204.15C163.649 189.764 163.767 180.377 169.956 154.596C170.226 153.473 170.258 152.307 170.05 151.171C169.843 150.035 169.401 148.955 168.753 147.999C168.105 147.043 167.265 146.233 166.286 145.621C165.307 145.008 164.211 144.607 163.068 144.441C160.736 144.097 158.148 143.772 155.521 143.595C149.634 143.05 143.715 142.925 137.809 143.221C133.657 143.516 129.189 144.126 126.001 144.609C124.487 144.834 123.098 145.58 122.074 146.719C121.051 147.857 120.456 149.317 120.392 150.847Z" fill="#4A607A"/>
<path d="M156.702 171.216L145.15 171.137C145.035 171.142 144.92 171.122 144.814 171.079C144.707 171.035 144.611 170.969 144.533 170.885C144.454 170.801 144.395 170.7 144.359 170.591C144.322 170.482 144.31 170.366 144.323 170.252L144.963 164.781C145.005 164.536 145.131 164.315 145.32 164.155C145.509 163.994 145.748 163.906 145.996 163.905L157.538 163.984C157.653 163.977 157.767 163.996 157.874 164.038C157.981 164.081 158.077 164.146 158.155 164.229C158.234 164.313 158.294 164.412 158.33 164.521C158.366 164.63 158.378 164.745 158.365 164.859L157.725 170.34C157.686 170.584 157.561 170.805 157.374 170.965C157.187 171.126 156.949 171.215 156.702 171.216Z" fill="white"/>
<path opacity="0.4" d="M137.868 143.231C137.868 143.231 131.512 147.679 138.232 158.837C143.75 153.47 149.533 148.383 155.561 143.595L137.868 143.231Z" fill="white"/>
<path d="M154.222 123.64C152.992 129.307 151.654 139.718 155.561 143.595C149.418 146.015 143.754 149.507 138.833 153.908C134.513 145.976 137.849 143.221 137.849 143.221C144.225 141.844 144.166 137.13 143.152 132.683L154.222 123.64Z" fill="#FDCEA4"/>
<path opacity="0.2" d="M153.022 124.624C152.868 128.01 151.993 131.325 150.454 134.346C149.381 136.422 146.518 137.298 143.634 137.465C143.73 135.856 143.574 134.243 143.172 132.683L153.022 124.624Z" fill="black"/>
<path d="M163.442 116.702C160.49 125.775 159.506 129.672 153.602 133.214C144.796 138.537 134.296 132.978 134.434 123.226C134.572 114.449 139.354 101.096 149.263 99.7284C151.457 99.4107 153.696 99.66 155.767 100.453C157.838 101.245 159.671 102.554 161.092 104.256C162.514 105.958 163.476 107.995 163.887 110.173C164.299 112.352 164.146 114.6 163.442 116.702Z" fill="#FDCEA4"/>
<path d="M139.384 104.786C144.304 106.174 156.289 107.207 158.69 105.77C156.436 109.234 158.581 118.7 162.065 120.993C166.758 117.224 167.801 108.112 163.462 103.596C159.123 99.0789 145.406 93.6768 139.384 104.786Z" fill="#263238"/>
<path d="M164.82 122.252C164.509 123.116 164.029 123.91 163.407 124.586C162.785 125.262 162.034 125.807 161.199 126.188C158.975 127.172 157.499 125.283 157.814 122.99C158.099 120.934 159.605 117.932 161.986 117.893C162.5 117.9 163.004 118.034 163.454 118.282C163.904 118.53 164.286 118.885 164.566 119.316C164.846 119.747 165.016 120.24 165.06 120.752C165.105 121.265 165.022 121.78 164.82 122.252Z" fill="#FDCEA4"/>
<path d="M164.564 201.877L166.257 205.41C166.385 205.676 166.06 205.951 165.607 205.941L124.742 205.085C124.397 205.085 124.112 204.898 124.092 204.672L123.807 201.179C123.807 200.943 124.102 200.746 124.486 200.746L163.944 201.572C164.065 201.565 164.186 201.589 164.295 201.643C164.403 201.696 164.496 201.777 164.564 201.877Z" fill="#263238"/>
<path d="M159.182 206.178H160.235C160.441 206.178 160.609 206.069 160.599 205.941L160.195 201.395C160.195 201.267 159.998 201.149 159.792 201.149H158.729C158.522 201.149 158.365 201.248 158.375 201.385L158.768 205.922C158.788 206.069 158.965 206.178 159.182 206.178Z" fill="#4A607A"/>
<path d="M127.704 205.528H128.766C128.973 205.528 129.14 205.43 129.13 205.292L128.727 200.746C128.727 200.618 128.53 200.51 128.323 200.5H127.261C127.054 200.5 126.887 200.598 126.906 200.736L127.3 205.272C127.32 205.41 127.497 205.518 127.704 205.528Z" fill="#4A607A"/>
<path d="M143.438 205.853H144.5C144.707 205.853 144.874 205.754 144.865 205.617L144.461 201.08C144.461 200.943 144.264 200.834 144.058 200.834H142.995C142.788 200.834 142.631 200.943 142.641 201.071L143.034 205.617C143.054 205.735 143.231 205.853 143.438 205.853Z" fill="#4A607A"/>
<path d="M149.283 115.945C149.086 116.693 148.535 117.204 148.043 117.076C147.551 116.948 147.315 116.24 147.502 115.492C147.689 114.744 148.249 114.233 148.741 114.36C149.233 114.488 149.47 115.197 149.283 115.945Z" fill="#263238"/>
<path d="M140.801 113.78C140.614 114.538 140.063 115.039 139.571 114.912C139.079 114.784 138.833 114.085 139.029 113.327C139.226 112.57 139.767 112.078 140.259 112.196C140.751 112.314 140.997 113.032 140.801 113.78Z" fill="#263238"/>
<path d="M140.466 112.294L138.793 111.31C138.793 111.31 139.364 112.963 140.466 112.294Z" fill="#263238"/>
<path d="M142.68 115.64C141.578 117.182 140.271 118.566 138.793 119.753C139.105 120.122 139.494 120.419 139.932 120.623C140.371 120.827 140.848 120.933 141.332 120.934L142.68 115.64Z" fill="#D19146"/>
<path d="M143.152 123.876C143.118 123.846 143.092 123.807 143.078 123.764C143.064 123.721 143.063 123.674 143.074 123.63C143.083 123.601 143.097 123.575 143.116 123.552C143.136 123.529 143.159 123.51 143.186 123.497C143.212 123.483 143.241 123.475 143.271 123.472C143.301 123.47 143.331 123.473 143.359 123.482C144.278 123.77 145.252 123.838 146.202 123.681C147.153 123.524 148.053 123.146 148.83 122.577C148.876 122.538 148.935 122.518 148.995 122.523C149.055 122.528 149.111 122.556 149.15 122.602C149.189 122.647 149.208 122.707 149.204 122.767C149.199 122.827 149.171 122.882 149.125 122.921C148.293 123.549 147.322 123.966 146.294 124.138C145.266 124.309 144.212 124.229 143.221 123.905L143.152 123.876Z" fill="#263238"/>
<path d="M153.907 112.491C153.848 112.438 153.798 112.374 153.76 112.304C153.557 111.771 153.229 111.293 152.805 110.912C152.381 110.53 151.871 110.255 151.319 110.11C151.201 110.089 151.095 110.022 151.026 109.923C150.957 109.824 150.93 109.702 150.95 109.583C150.971 109.464 151.039 109.359 151.137 109.29C151.236 109.22 151.358 109.193 151.477 109.214C152.179 109.388 152.829 109.727 153.373 110.202C153.918 110.678 154.34 111.277 154.606 111.95C154.641 112.042 154.645 112.143 154.618 112.238C154.591 112.334 154.534 112.417 154.456 112.478C154.378 112.538 154.283 112.572 154.184 112.575C154.085 112.577 153.988 112.548 153.907 112.491Z" fill="#263238"/>
<path d="M139.128 108.998L139.069 108.939C138.984 108.854 138.936 108.739 138.936 108.619C138.936 108.499 138.984 108.384 139.069 108.299C139.588 107.812 140.215 107.453 140.899 107.253C141.583 107.053 142.304 107.017 143.005 107.148C143.063 107.163 143.118 107.189 143.166 107.225C143.215 107.262 143.255 107.307 143.285 107.36C143.316 107.412 143.335 107.47 143.343 107.53C143.35 107.59 143.346 107.65 143.329 107.709C143.299 107.825 143.224 107.924 143.121 107.985C143.018 108.046 142.895 108.063 142.778 108.033C142.217 107.928 141.639 107.957 141.091 108.12C140.543 108.282 140.042 108.573 139.63 108.968C139.558 109.022 139.472 109.054 139.383 109.059C139.294 109.064 139.205 109.043 139.128 108.998Z" fill="#263238"/>
<path d="M169.947 151.398C172.81 155.187 175.487 159.005 178.084 162.97C179.373 164.938 180.653 166.906 181.863 169.032C183.167 171.181 184.336 173.409 185.366 175.703C185.677 176.418 185.947 177.151 186.173 177.897C186.337 178.473 186.449 179.063 186.507 179.659C186.524 179.898 186.524 180.138 186.507 180.377V180.82C186.489 181.015 186.46 181.209 186.419 181.4L186.35 181.705V181.843V181.951L186.271 182.168C185.809 183.349 185.445 184.539 184.894 185.681C183.896 188.02 182.697 190.269 181.312 192.402C179.885 194.555 178.214 196.536 176.333 198.306C175.374 199.204 174.344 200.024 173.253 200.756C172.692 201.12 172.121 201.474 171.531 201.799L170.596 202.251C170.242 202.409 169.986 202.517 169.474 202.704L167.605 198.217C167.738 198.087 167.879 197.965 168.028 197.853L168.569 197.381C168.933 197.056 169.287 196.702 169.632 196.338C170.333 195.586 170.99 194.794 171.6 193.966C172.802 192.276 173.849 190.481 174.729 188.603C175.142 187.619 175.595 186.694 175.939 185.651C176.284 184.608 176.667 183.683 176.982 182.699C177.297 181.715 177.543 180.633 177.848 179.61V179.423V179.324V179.413V179.61C177.848 179.728 177.799 179.905 177.789 179.974C177.784 180.049 177.784 180.125 177.789 180.2V180.485C177.789 180.712 177.789 180.643 177.789 180.544C177.789 180.446 177.514 179.915 177.307 179.501C176.411 177.819 175.211 175.88 173.981 174.03C172.751 172.18 171.472 170.281 170.163 168.421C167.555 164.692 164.869 160.923 162.232 157.224L169.947 151.398Z" fill="#FDCEA4"/>
<path d="M172.082 201.543L164.495 206.906L161.091 199.152C161.091 199.152 165.696 196.682 169.327 198.335L172.082 201.543Z" fill="#FDCEA4"/>
<path d="M159.211 207.545L157.312 204.898C156.952 204.388 156.804 203.757 156.902 203.139C156.999 202.522 157.333 201.967 157.834 201.592L161.091 199.152L164.495 206.906L162.409 208.195C161.893 208.512 161.276 208.621 160.682 208.5C160.089 208.38 159.563 208.038 159.211 207.545Z" fill="#FDCEA4"/>
<path d="M154.764 149.056C152.185 159.3 168.087 176.835 168.087 176.835L181.46 162.95C181.46 162.95 175.349 149.903 167.369 145.809C161.799 142.956 155.905 144.54 154.764 149.056Z" fill="#4A607A"/>
<path d="M148.948 114.459L147.275 113.475C147.275 113.475 147.836 115.128 148.948 114.459Z" fill="#263238"/>
<path d="M131.856 176.421C131.784 176.421 131.714 176.399 131.654 176.359C131.595 176.319 131.549 176.262 131.521 176.195C131.489 176.108 131.493 176.011 131.532 175.926C131.571 175.842 131.641 175.776 131.728 175.742L133.263 175.152C134.701 174.621 135.942 173.664 136.822 172.408C137.701 171.153 138.176 169.659 138.183 168.126L138.291 153.74C138.323 152.645 137.977 151.572 137.312 150.701C136.646 149.831 135.703 149.215 134.638 148.957C133.573 148.698 132.452 148.814 131.462 149.283C130.472 149.753 129.673 150.548 129.199 151.536L122.547 164.328C121.833 165.678 121.544 167.214 121.72 168.732C121.896 170.249 122.527 171.678 123.531 172.83L124.614 174.06C124.65 174.094 124.679 174.135 124.699 174.18C124.718 174.226 124.728 174.275 124.727 174.325C124.726 174.375 124.715 174.424 124.694 174.469C124.673 174.514 124.643 174.554 124.605 174.587C124.568 174.619 124.524 174.644 124.477 174.658C124.429 174.673 124.379 174.677 124.33 174.671C124.28 174.665 124.233 174.649 124.19 174.623C124.148 174.597 124.111 174.563 124.082 174.522L123 173.184C121.892 171.933 121.192 170.373 120.993 168.713C120.794 167.053 121.107 165.373 121.888 163.895L128.54 151.103C129.109 150.011 130.028 149.143 131.15 148.637C132.273 148.132 133.532 148.019 134.727 148.317C135.921 148.614 136.981 149.305 137.734 150.279C138.488 151.252 138.892 152.45 138.882 153.681L138.774 168.067C138.766 169.736 138.252 171.363 137.299 172.733C136.347 174.104 135.001 175.153 133.44 175.742L131.905 176.323L131.856 176.421Z" fill="#263238"/>
<path d="M138.537 156.948C138.446 156.946 138.359 156.909 138.293 156.845C138.227 156.781 138.188 156.695 138.183 156.604C138.044 155.467 137.563 154.399 136.804 153.54C136.046 152.682 135.045 152.074 133.933 151.796C132.822 151.518 131.653 151.583 130.579 151.983C129.506 152.382 128.579 153.098 127.92 154.035C127.897 154.076 127.867 154.112 127.831 154.141C127.794 154.17 127.752 154.191 127.707 154.204C127.663 154.217 127.616 154.221 127.57 154.215C127.523 154.21 127.479 154.196 127.438 154.173C127.397 154.15 127.361 154.12 127.332 154.084C127.303 154.047 127.282 154.005 127.269 153.961C127.256 153.916 127.252 153.869 127.258 153.823C127.263 153.776 127.277 153.732 127.3 153.691C128.032 152.609 129.079 151.778 130.299 151.31C131.519 150.842 132.854 150.761 134.122 151.077C135.389 151.392 136.53 152.09 137.388 153.075C138.247 154.06 138.782 155.285 138.921 156.584C138.921 156.677 138.886 156.767 138.822 156.835C138.758 156.902 138.67 156.943 138.577 156.948H138.537Z" fill="#263238"/>
<path d="M134.7 149.086C134.641 149.085 134.584 149.07 134.533 149.043C134.482 149.016 134.438 148.976 134.405 148.928C134.225 148.529 134.132 148.097 134.132 147.659C134.132 147.221 134.225 146.789 134.405 146.39C134.66 145.596 135.091 144.87 135.665 144.265C136.239 143.661 136.941 143.193 137.721 142.896C137.764 142.88 137.81 142.872 137.856 142.874C137.903 142.876 137.948 142.887 137.99 142.907C138.031 142.928 138.068 142.957 138.098 142.992C138.128 143.027 138.15 143.069 138.163 143.113C138.192 143.2 138.185 143.296 138.145 143.378C138.104 143.461 138.033 143.525 137.947 143.556C137.28 143.829 136.68 144.245 136.189 144.773C135.698 145.302 135.327 145.93 135.103 146.616C134.956 146.921 134.871 147.251 134.853 147.589C134.834 147.927 134.882 148.265 134.995 148.584C135.02 148.623 135.038 148.667 135.046 148.713C135.054 148.76 135.054 148.807 135.043 148.853C135.033 148.898 135.014 148.942 134.987 148.98C134.961 149.018 134.926 149.051 134.887 149.076C134.826 149.094 134.762 149.097 134.7 149.086Z" fill="#263238"/>
<path d="M131.049 175.88C130.882 176.52 131.049 177.13 131.521 177.238C131.994 177.346 132.427 176.903 132.584 176.254C132.742 175.605 132.525 174.995 132.102 174.896C131.679 174.798 131.207 175.231 131.049 175.88Z" fill="#263238"/>
<path d="M158.975 158.886C159.29 160.372 160.353 161.396 161.327 161.189C162.301 160.982 162.832 159.595 162.508 158.119C162.183 156.643 161.13 155.6 160.156 155.816C159.182 156.033 158.65 157.44 158.975 158.886Z" fill="#263238"/>
<path d="M162.055 158.424C162.01 158.425 161.965 158.418 161.922 158.402C161.88 158.385 161.841 158.361 161.809 158.33C161.776 158.299 161.749 158.262 161.731 158.221C161.712 158.179 161.702 158.135 161.701 158.089C161.494 152.648 159.428 145.888 155.403 143.89C155.32 143.848 155.257 143.775 155.227 143.687C155.198 143.598 155.204 143.502 155.246 143.418C155.266 143.376 155.294 143.338 155.329 143.307C155.363 143.277 155.404 143.253 155.448 143.238C155.492 143.224 155.539 143.218 155.585 143.222C155.632 143.226 155.677 143.239 155.718 143.261C160.028 145.396 162.183 152.235 162.399 158.021C162.403 158.067 162.398 158.114 162.383 158.158C162.368 158.202 162.344 158.242 162.312 158.276C162.281 158.311 162.243 158.338 162.2 158.357C162.157 158.375 162.111 158.385 162.065 158.385L162.055 158.424Z" fill="#263238"/>
<path d="M157.922 159.014C158.129 160.284 159.044 161.189 159.969 161.041C160.894 160.894 161.484 159.743 161.278 158.463C161.071 157.184 160.146 156.289 159.221 156.436C158.296 156.584 157.715 157.735 157.922 159.014Z" fill="white"/>
<path d="M157.843 159.123C158.139 160.697 158.965 161.858 159.684 161.72C160.402 161.583 160.727 160.205 160.431 158.631C160.136 157.056 159.31 155.895 158.591 156.033C157.873 156.171 157.538 157.548 157.843 159.123Z" fill="#263238"/>
<path d="M123.61 174.02C123.453 174.67 123.669 175.28 124.092 175.378C124.515 175.477 124.988 175.054 125.155 174.394C125.322 173.735 125.096 173.145 124.673 173.036C124.25 172.928 123.777 173.381 123.61 174.02Z" fill="#263238"/>
<path d="M231.397 93.8933C225.169 95.0052 224.381 94.4345 224.303 89.9573C224.224 85.4801 221.961 78.0115 225.11 75.6696C225.326 75.4646 225.592 75.32 225.881 75.25C226.171 75.18 226.473 75.1872 226.759 75.2709C227.045 75.3546 227.304 75.5117 227.51 75.7267C227.716 75.9417 227.862 76.207 227.934 76.4961C228.126 76.005 228.5 75.6071 228.979 75.3852C229.457 75.1634 230.003 75.1348 230.502 75.3055C230.63 74.3805 230.777 72.0091 232.47 71.3695C234.162 70.7299 235.717 72.2649 235.717 72.2649C235.717 72.2649 235.589 68.6143 238.049 68.9685C238.784 69.0859 239.466 69.4219 240.006 69.9327C240.547 70.4435 240.921 71.1054 241.08 71.832C241.08 71.832 242.497 69.7656 244.416 70.5823C246.334 71.399 245.931 73.8 245.931 73.8C245.931 73.8 247.968 72.816 249.483 73.9279C250.999 75.0398 249.897 76.8209 249.897 76.8209C249.897 76.8209 251.274 73.2785 253.901 75.2366C256.263 77.0078 254.118 79.7827 254.118 79.7827C254.118 79.7827 256.716 79.3596 257.345 80.6683C259.471 85.1258 251.373 90.1049 251.107 97.6325C238.669 102.336 231.397 93.8933 231.397 93.8933Z" fill="#263238"/>
<path d="M186.507 213.528L182.355 212.76L176.864 218.005C176.565 218.29 176.329 218.634 176.172 219.015C176.014 219.397 175.938 219.807 175.949 220.219L176.028 224.509C176.037 225.243 176.32 225.947 176.82 226.483C177.32 227.02 178.003 227.351 178.734 227.412L180.643 227.579C181.337 227.645 182.032 227.463 182.605 227.065C183.178 226.667 183.591 226.079 183.772 225.405L184.756 221.902C184.756 221.902 190.178 215.496 186.507 213.528Z" fill="#FFB573"/>
<path d="M228.445 135.064C225.661 142.277 222.886 149.519 220.209 156.781C217.533 164.043 214.876 171.334 212.387 178.507L211.944 179.836L211.639 180.702C211.521 181.026 211.403 181.361 211.294 181.617C210.832 182.788 210.369 183.752 209.907 184.726C208.982 186.694 208.047 188.456 207.102 190.237C205.203 193.779 203.245 197.194 201.267 200.598C197.331 207.417 193.395 214.079 189.322 220.839L176.795 213.046C180.928 206.62 184.913 199.988 188.731 193.366C190.611 190.04 192.461 186.704 194.183 183.398C195.039 181.745 195.865 180.092 196.593 178.478C196.938 177.701 197.282 176.903 197.508 176.254C197.587 176.067 197.617 175.939 197.666 175.811L197.823 175.3L198.276 173.863C200.647 166.306 203.137 159.005 205.538 151.595L212.741 129.445L228.445 135.064Z" fill="#C2D4FE"/>
<path opacity="0.6" d="M228.445 135.064C225.661 142.277 222.886 149.519 220.209 156.781C217.533 164.043 214.876 171.334 212.387 178.507L211.944 179.836L211.639 180.702C211.521 181.026 211.403 181.361 211.294 181.617C210.832 182.788 210.369 183.752 209.907 184.726C208.982 186.694 208.047 188.456 207.102 190.237C205.203 193.779 203.245 197.194 201.267 200.598C197.331 207.417 193.395 214.079 189.322 220.839L176.795 213.046C180.928 206.62 184.913 199.988 188.731 193.366C190.611 190.04 192.461 186.704 194.183 183.398C195.039 181.745 195.865 180.092 196.593 178.478C196.938 177.701 197.282 176.903 197.508 176.254C197.587 176.067 197.617 175.939 197.666 175.811L197.823 175.3L198.276 173.863C200.647 166.306 203.137 159.005 205.538 151.595L212.741 129.445L228.445 135.064Z" fill="white"/>
<path d="M190.916 398.431L182.089 398.864L186.261 375.878L194.655 377.807L190.916 398.431Z" fill="#FFB573"/>
<path d="M254.236 398.766H245.41L245.439 378.328H254.256L254.236 398.766Z" fill="#FFB573"/>
<path d="M244.573 397.743H255.328C255.501 397.74 255.669 397.799 255.803 397.909C255.936 398.019 256.026 398.173 256.056 398.343L257.473 406.215C257.505 406.41 257.494 406.609 257.44 406.799C257.387 406.989 257.293 407.165 257.164 407.315C257.036 407.464 256.877 407.584 256.697 407.666C256.518 407.748 256.323 407.79 256.125 407.789C252.662 407.73 250.143 407.524 245.784 407.524C243.107 407.524 234.959 407.799 231.299 407.799C227.639 407.799 227.265 404.139 228.79 403.804C235.678 402.318 240.864 400.272 243.117 398.313C243.516 397.952 244.034 397.748 244.573 397.743Z" fill="#263238"/>
<path opacity="0.2" d="M186.261 375.888L184.333 386.515L192.726 388.444L194.655 377.817L186.261 375.888Z" fill="black"/>
<path opacity="0.2" d="M254.256 378.328H245.429V388.857H254.256V378.328Z" fill="black"/>
<path d="M261.36 134.808C254.472 165.794 256.302 196.377 255.564 202.999L208.46 199.89C203.54 162.498 209.031 138.646 212.15 128.865C212.657 127.25 213.616 125.815 214.914 124.728C216.211 123.642 217.793 122.95 219.471 122.734C226.476 121.967 233.53 121.746 240.568 122.075C245.334 122.36 250.063 123.078 254.699 124.22C256.984 124.743 258.97 126.152 260.218 128.137C261.467 130.122 261.878 132.521 261.36 134.808Z" fill="#C2D4FE"/>
<path d="M247.161 101.076C245.606 106.912 243.766 117.244 246.728 122.469C247.191 123.285 246.305 123.984 246.266 124.929C246.157 127.822 242.241 128.688 235.235 128.727C228.229 128.766 225.228 125.844 227.137 123.089C227.429 122.669 227.874 122.379 228.377 122.282C234.94 120.816 235.068 115.669 234.172 110.759L247.161 101.076Z" fill="#FFB573"/>
<path opacity="0.4" d="M234.733 127.123C236.574 129.682 237.741 132.663 238.128 135.792C245.124 132.505 248.46 124.525 248.46 124.525L246.354 122.272C246.354 122.272 238.581 123.738 234.733 127.123Z" fill="black"/>
<path opacity="0.4" d="M234.044 127.152C231.468 129.249 229.295 131.797 227.629 134.67C222.738 131.64 224.352 123 224.352 123L228.337 122.213C228.337 122.213 230.118 123.856 234.044 127.152Z" fill="black"/>
<path d="M234.359 126.936L232.854 127.084L230.305 128.766C230.143 129.78 230.323 130.818 230.817 131.718C232.297 132.007 233.808 132.11 235.314 132.023C236.324 131.535 237.129 130.706 237.587 129.681L235.717 127.29L234.359 126.936Z" fill="#263238"/>
<path d="M234.359 126.936C236.25 129.302 237.699 131.988 238.64 134.867C245.636 131.58 249.71 123.728 249.71 123.728L246.335 120.776C246.335 120.776 238.207 123.571 234.359 126.936Z" fill="#C2D4FE"/>
<path d="M234.359 126.936C231.659 128.64 229.297 130.828 227.392 133.391C222.472 130.37 224.352 122.232 224.352 122.232L228.337 121.445C228.337 121.445 230.443 123.659 234.359 126.936Z" fill="#C2D4FE"/>
<path opacity="0.2" d="M241.867 105.022L234.192 110.749C234.424 111.933 234.553 113.135 234.576 114.341C237.341 114.134 241.316 111.389 241.798 108.516C242.029 107.365 242.053 106.182 241.867 105.022Z" fill="black"/>
<path d="M248.568 91.4333C247.456 100.122 247.25 105.209 242.546 109.45C235.471 115.738 224.972 111.035 223.466 102.188C222.108 94.2278 224.155 81.3571 232.923 78.4543C234.853 77.8037 236.918 77.6574 238.92 78.0295C240.923 78.4016 242.797 79.2797 244.365 80.5803C245.933 81.8809 247.142 83.5608 247.878 85.4603C248.613 87.3599 248.851 89.416 248.568 91.4333Z" fill="#FFB573"/>
<path d="M246.443 99.2856C244.475 97.3865 245.705 88.2943 246.699 85.6867C241.779 86.159 225.877 86.1393 226.477 81.7507C227.078 77.3621 232.864 73.6327 242.32 76.7126C250.192 79.2809 252.16 83.207 252.16 86.4149C252.278 93.0077 246.443 99.2856 246.443 99.2856Z" fill="#263238"/>
<path d="M251.619 99.384C250.684 101.17 249.088 102.519 247.171 103.143C244.662 103.92 243.422 101.608 244.13 99.1281C244.76 96.9043 246.836 93.8047 249.346 94.1196C251.855 94.4344 252.77 97.17 251.619 99.384Z" fill="#FFB573"/>
<path d="M181.459 383.819L196.052 387.037C196.052 387.037 210.241 331.431 214.453 304.253C215.742 295.987 218.733 284.189 221.459 271.781C224.893 256.135 229.213 239.21 232.755 225.956C236.495 211.993 239.269 201.956 239.269 201.956L208.46 199.919C208.46 199.919 194.124 272.647 191.231 299.421C188.21 327.249 181.459 383.819 181.459 383.819Z" fill="#263238"/>
<path opacity="0.2" d="M221.459 271.761C224.893 256.115 229.213 239.191 232.755 225.936L229.518 219.048C221.872 228.18 219.914 256.43 221.459 271.761Z" fill="black"/>
<path d="M223.142 200.864C223.142 200.864 229.518 275.185 231.998 300.917C234.753 329.099 242.143 386.83 242.143 386.83H256.962C256.962 386.83 257.631 325.35 254.994 298.132C254.62 244.622 255.555 203.009 255.555 203.009L223.142 200.864Z" fill="#263238"/>
<path d="M240.253 387.174H259.284V381.487L239.515 380.395L240.253 387.174Z" fill="#C2D4FE"/>
<path d="M179.55 383.76L196.938 387.598L198.178 381.979L179.974 377.394L179.55 383.76Z" fill="#C2D4FE"/>
<path d="M235.865 92.988C235.865 93.6965 235.402 94.2475 234.94 94.218C234.477 94.1885 234.133 93.5882 234.182 92.8798C234.231 92.1713 234.645 91.6202 235.107 91.6498C235.57 91.6793 235.914 92.2795 235.865 92.988Z" fill="#263238"/>
<path d="M227.835 92.496C227.835 93.2045 227.373 93.7555 226.91 93.726C226.448 93.6965 226.104 93.0962 226.153 92.3877C226.202 91.6793 226.615 91.1282 227.078 91.1577C227.54 91.1873 227.885 91.7481 227.835 92.496Z" fill="#263238"/>
<path d="M229.675 92.988C228.683 95.0989 227.409 97.0653 225.887 98.8329C227.058 100.092 229.233 99.6989 229.233 99.6989L229.675 92.988Z" fill="#ED893E"/>
<path d="M232.106 101.795C232.903 101.75 233.684 101.543 234.399 101.188C235.114 100.833 235.75 100.336 236.268 99.7284C236.305 99.6899 236.325 99.6388 236.325 99.5857C236.325 99.5325 236.305 99.4814 236.268 99.443C236.228 99.4057 236.175 99.3849 236.121 99.3849C236.066 99.3849 236.013 99.4057 235.973 99.443C235.389 100.11 234.656 100.63 233.834 100.961C233.012 101.293 232.123 101.427 231.24 101.352C231.213 101.349 231.185 101.352 231.159 101.36C231.133 101.368 231.109 101.381 231.088 101.398C231.067 101.416 231.049 101.437 231.037 101.461C231.024 101.485 231.016 101.512 231.014 101.539C231.011 101.595 231.03 101.649 231.067 101.692C231.103 101.734 231.155 101.76 231.21 101.765C231.508 101.793 231.807 101.803 232.106 101.795Z" fill="#263238"/>
<path d="M237.823 90.528C237.893 90.52 237.96 90.4964 238.02 90.4591C238.113 90.3986 238.179 90.3037 238.203 90.1951C238.227 90.0864 238.207 89.9727 238.148 89.8785C237.796 89.3124 237.315 88.8384 236.743 88.4961C236.171 88.1538 235.526 87.953 234.861 87.9105C234.761 87.9259 234.67 87.9765 234.604 88.0532C234.538 88.1299 234.502 88.2277 234.502 88.3287C234.502 88.4298 234.538 88.5275 234.604 88.6042C234.67 88.6809 234.761 88.7316 234.861 88.7469C235.386 88.7857 235.895 88.9487 236.345 89.2224C236.795 89.4961 237.173 89.8728 237.449 90.3213C237.486 90.3873 237.54 90.4417 237.606 90.4782C237.673 90.5147 237.748 90.532 237.823 90.528Z" fill="#263238"/>
<path d="M223.87 89.4751C223.938 89.4703 224.004 89.449 224.063 89.413C224.121 89.377 224.17 89.3274 224.204 89.2685C224.455 88.8112 224.811 88.4196 225.242 88.1255C225.673 87.8314 226.167 87.6432 226.684 87.576C226.794 87.566 226.895 87.5147 226.968 87.4324C227.042 87.3502 227.081 87.2432 227.078 87.1332C227.07 87.0227 227.019 86.9195 226.937 86.846C226.854 86.7724 226.746 86.7342 226.635 86.7396C225.974 86.8194 225.342 87.0568 224.793 87.4319C224.243 87.8069 223.792 88.3085 223.476 88.8945C223.423 88.9899 223.41 89.1024 223.439 89.2074C223.469 89.3125 223.539 89.4017 223.634 89.4554C223.708 89.4889 223.791 89.4958 223.87 89.4751Z" fill="#263238"/>
<path d="M241.592 399.278C242.375 399.259 243.154 399.153 243.914 398.963C243.954 398.954 243.99 398.933 244.018 398.903C244.046 398.873 244.065 398.836 244.071 398.796C244.082 398.757 244.08 398.716 244.066 398.679C244.052 398.642 244.026 398.61 243.993 398.589C243.678 398.382 240.903 396.621 239.899 397.132C239.791 397.189 239.699 397.274 239.633 397.378C239.567 397.481 239.53 397.6 239.525 397.723C239.49 397.926 239.507 398.134 239.574 398.328C239.641 398.523 239.757 398.697 239.909 398.835C240.402 399.172 240.997 399.329 241.592 399.278ZM243.314 398.668C241.808 398.973 240.657 398.914 240.194 398.51C240.09 398.417 240.011 398.298 239.966 398.165C239.921 398.032 239.912 397.89 239.939 397.752C239.939 397.595 240.017 397.536 240.076 397.506C240.598 397.251 242.192 397.998 243.314 398.668Z" fill="#C2D4FE"/>
<path d="M243.865 398.973C243.899 398.986 243.938 398.986 243.973 398.973C244.006 398.954 244.034 398.927 244.053 398.894C244.073 398.861 244.082 398.824 244.081 398.786C244.081 398.677 243.973 396.129 242.979 395.292C242.859 395.187 242.718 395.109 242.565 395.063C242.412 395.017 242.252 395.005 242.093 395.027C241.936 395.027 241.783 395.081 241.66 395.179C241.536 395.277 241.45 395.414 241.415 395.568C241.188 396.552 242.871 398.52 243.766 398.982C243.799 398.989 243.834 398.986 243.865 398.973ZM242.231 395.391C242.406 395.393 242.575 395.459 242.704 395.578C243.333 396.109 243.56 397.595 243.629 398.343C242.753 397.654 241.661 396.188 241.818 395.607C241.818 395.558 241.818 395.43 242.133 395.401H242.231V395.391Z" fill="#C2D4FE"/>
<path d="M180.771 394.978L191.122 397.93C191.288 397.977 191.431 398.081 191.528 398.222C191.625 398.364 191.67 398.536 191.654 398.707L190.886 406.648C190.861 406.843 190.794 407.031 190.69 407.198C190.586 407.365 190.447 407.508 190.282 407.616C190.118 407.724 189.932 407.796 189.737 407.826C189.543 407.856 189.344 407.843 189.154 407.789C185.838 406.805 183.477 405.91 179.314 404.719C176.736 403.991 168.343 400.98 165.282 398.894C162.222 396.808 164.023 393.59 165.469 394.18C171.974 396.818 176.549 396.394 179.245 395.164C179.716 394.924 180.256 394.858 180.771 394.978Z" fill="#263238"/>
<path d="M177.474 395.647C178.235 395.836 179.013 395.945 179.797 395.971C179.839 395.974 179.881 395.964 179.918 395.943C179.954 395.922 179.984 395.891 180.003 395.853C180.026 395.82 180.039 395.781 180.039 395.74C180.039 395.7 180.026 395.66 180.003 395.627C179.757 395.352 177.563 392.911 176.471 393.118C176.349 393.145 176.236 393.202 176.143 393.285C176.05 393.367 175.98 393.473 175.939 393.59C175.854 393.774 175.816 393.977 175.828 394.179C175.84 394.382 175.902 394.578 176.008 394.751C176.383 395.205 176.899 395.52 177.474 395.647ZM179.305 395.529C177.769 395.411 176.677 395.037 176.352 394.545C176.286 394.422 176.251 394.285 176.251 394.146C176.251 394.007 176.286 393.87 176.352 393.748C176.412 393.59 176.49 393.561 176.559 393.551C177.12 393.423 178.399 394.584 179.305 395.568V395.529Z" fill="#C2D4FE"/>
<path d="M179.747 395.962C179.786 395.972 179.827 395.972 179.865 395.962C179.903 395.952 179.938 395.932 179.966 395.905C179.994 395.877 180.013 395.842 180.023 395.804C180.023 395.706 180.633 393.226 179.914 392.144C179.827 392.012 179.712 391.9 179.578 391.815C179.444 391.73 179.294 391.675 179.137 391.652C178.985 391.609 178.822 391.619 178.676 391.68C178.53 391.74 178.408 391.848 178.33 391.986C177.838 392.872 178.94 395.194 179.659 395.922C179.684 395.943 179.715 395.956 179.747 395.962ZM179.147 392.075C179.315 392.122 179.459 392.231 179.55 392.38C180.023 393.069 179.826 394.564 179.698 395.332C179.039 394.436 178.409 392.734 178.714 392.213C178.714 392.163 178.803 392.055 179.078 392.094L179.147 392.075Z" fill="#C2D4FE"/>
<path d="M247.309 121.701C247.204 121.684 247.097 121.692 246.996 121.722C246.894 121.753 246.801 121.806 246.723 121.878C246.645 121.951 246.585 122.039 246.547 122.138C246.508 122.237 246.493 122.343 246.502 122.449C246.846 127.723 238.63 137.209 236.662 165.617C235.491 182.896 234.418 236.77 235.206 264.794C235.217 265.162 235.312 265.522 235.484 265.848C235.655 266.173 235.899 266.455 236.196 266.673C236.493 266.89 236.835 267.036 237.197 267.101C237.559 267.166 237.932 267.148 238.285 267.048C252.809 262.994 259.668 272.824 262.462 261.232C262.315 247.348 258.113 197.499 259.195 185.681C260.278 173.863 264.775 141.755 265.896 133.194C266.89 125.755 251.373 122.439 247.309 121.701Z" fill="#C2D4FE"/>
<path opacity="0.7" d="M247.309 121.701C247.204 121.684 247.097 121.692 246.996 121.722C246.894 121.753 246.801 121.806 246.723 121.878C246.645 121.951 246.585 122.039 246.547 122.138C246.508 122.237 246.493 122.343 246.502 122.449C246.846 127.723 238.63 137.209 236.662 165.617C235.491 182.896 234.418 236.77 235.206 264.794C235.217 265.162 235.312 265.522 235.484 265.848C235.655 266.173 235.899 266.455 236.196 266.673C236.493 266.89 236.835 267.036 237.197 267.101C237.559 267.166 237.932 267.148 238.285 267.048C252.809 262.994 259.668 272.824 262.462 261.232C262.315 247.348 258.113 197.499 259.195 185.681C260.278 173.863 264.775 141.755 265.896 133.194C266.89 125.755 251.373 122.439 247.309 121.701Z" fill="white"/>
<path opacity="0.2" d="M256.883 145.78C256.243 150.168 255.997 167.9 260.219 176.431C260.927 170.527 261.852 163.511 262.748 156.751L256.883 145.78Z" fill="#C2D4FE"/>
<path d="M262.915 222.463L258.723 222.955L255.013 229.577C254.81 229.935 254.684 230.333 254.643 230.743C254.603 231.153 254.648 231.567 254.777 231.958L256.115 236.032C256.343 236.729 256.821 237.317 257.458 237.681C258.094 238.045 258.844 238.158 259.559 238L261.429 237.606C262.116 237.467 262.731 237.087 263.164 236.535C263.597 235.984 263.819 235.296 263.791 234.595L263.673 230.974C263.673 230.974 266.999 223.289 262.915 222.463Z" fill="#FFB573"/>
<path d="M265.218 129.888C266.556 133.824 267.796 137.711 269.026 141.647C270.256 145.583 271.486 149.519 272.647 153.455C273.808 157.391 274.93 161.415 275.963 165.519C276.475 167.575 276.947 169.651 277.399 171.826C277.606 172.918 277.813 174.03 277.98 175.211C278.059 175.821 278.147 176.382 278.196 177.061L278.285 178.045L278.334 179.157C278.354 179.53 278.354 179.905 278.334 180.279C278.334 180.672 278.334 181.046 278.285 181.351L278.196 182.335L278.088 183.221C277.95 184.411 277.773 185.494 277.596 186.576C277.242 188.721 276.829 190.788 276.406 192.834C275.559 196.928 274.615 200.933 273.66 204.918C272.706 208.903 271.692 212.878 270.708 216.844L267.756 228.741L253.508 224.873C255.712 217.188 257.719 209.366 259.579 201.592C260.484 197.656 261.331 193.799 262.088 189.951C262.462 187.983 262.817 186.114 263.072 184.264C263.22 183.339 263.338 182.424 263.417 181.597C263.493 180.944 263.52 180.286 263.496 179.629V179.216L263.427 178.684C263.427 178.35 263.309 177.907 263.25 177.523C263.112 176.697 262.935 175.821 262.738 174.926C262.334 173.135 261.852 171.285 261.331 169.425C260.347 165.696 259.097 161.917 257.828 158.158C255.318 150.64 252.494 143.074 249.582 135.713L265.218 129.888Z" fill="#C2D4FE"/>
<path opacity="0.7" d="M265.218 129.888C266.556 133.824 267.796 137.711 269.026 141.647C270.256 145.583 271.486 149.519 272.647 153.455C273.808 157.391 274.93 161.415 275.963 165.519C276.475 167.575 276.947 169.651 277.399 171.826C277.606 172.918 277.813 174.03 277.98 175.211C278.059 175.821 278.147 176.382 278.196 177.061L278.285 178.045L278.334 179.157C278.354 179.53 278.354 179.905 278.334 180.279C278.334 180.672 278.334 181.046 278.285 181.351L278.196 182.335L278.088 183.221C277.95 184.411 277.773 185.494 277.596 186.576C277.242 188.721 276.829 190.788 276.406 192.834C275.559 196.928 274.615 200.933 273.66 204.918C272.706 208.903 271.692 212.878 270.708 216.844L267.756 228.741L253.508 224.873C255.712 217.188 257.719 209.366 259.579 201.592C260.484 197.656 261.331 193.799 262.088 189.951C262.462 187.983 262.817 186.114 263.072 184.264C263.22 183.339 263.338 182.424 263.417 181.597C263.493 180.944 263.52 180.286 263.496 179.629V179.216L263.427 178.684C263.427 178.35 263.309 177.907 263.25 177.523C263.112 176.697 262.935 175.821 262.738 174.926C262.334 173.135 261.852 171.285 261.331 169.425C260.347 165.696 259.097 161.917 257.828 158.158C255.318 150.64 252.494 143.074 249.582 135.713L265.218 129.888Z" fill="white"/>
<path d="M228.17 120.963C228.386 120.962 228.599 121.021 228.782 121.136C228.966 121.25 229.113 121.414 229.207 121.609C229.301 121.804 229.337 122.022 229.312 122.237C229.287 122.451 229.202 122.655 229.065 122.823C226.723 125.539 225.247 129.268 222.473 141.233C219.127 155.669 212.003 228.298 210.665 263.889C210.658 264.185 210.587 264.476 210.457 264.741C210.328 265.007 210.142 265.242 209.913 265.429C209.684 265.616 209.417 265.751 209.13 265.825C208.844 265.899 208.545 265.91 208.254 265.857C201.307 264.578 196.544 267.943 195.786 263.486C194.95 258.566 198.069 211.57 203.904 189.469C202.989 169.868 206.296 130.547 212.898 125.322C216.48 122.419 224.096 121.032 228.17 120.963Z" fill="#C2D4FE"/>
<path opacity="0.7" d="M228.17 120.963C228.386 120.962 228.599 121.021 228.782 121.136C228.966 121.25 229.113 121.414 229.207 121.609C229.301 121.804 229.337 122.022 229.312 122.237C229.287 122.451 229.202 122.655 229.065 122.823C226.723 125.539 225.247 129.268 222.473 141.233C219.127 155.669 212.003 228.298 210.665 263.889C210.658 264.185 210.587 264.476 210.457 264.741C210.328 265.007 210.142 265.242 209.913 265.429C209.684 265.616 209.417 265.751 209.13 265.825C208.844 265.899 208.545 265.91 208.254 265.857C201.307 264.578 196.544 267.943 195.786 263.486C194.95 258.566 198.069 211.57 203.904 189.469C202.989 169.868 206.296 130.547 212.898 125.322C216.48 122.419 224.096 121.032 228.17 120.963Z" fill="white"/>
<path d="M231.998 130.715C231.998 130.715 223.496 154.596 220.505 174.611C220.268 180.052 222.856 190.591 224.952 195.186C229.331 185.651 232.067 180.033 232.5 174.611C233.198 166.453 234.349 130.872 234.349 130.872L231.998 130.715Z" fill="#263238"/>
<path d="M249.788 159.123C249.702 159.12 249.619 159.089 249.553 159.034C249.486 158.98 249.439 158.905 249.419 158.821C249.399 158.737 249.407 158.649 249.441 158.57C249.476 158.492 249.536 158.426 249.611 158.385L251.225 157.538C252.731 156.763 253.966 155.548 254.764 154.054C255.562 152.559 255.886 150.857 255.692 149.174L253.941 133.312C253.812 132.13 253.288 131.025 252.455 130.177C251.621 129.328 250.526 128.785 249.346 128.635C248.166 128.485 246.97 128.737 245.951 129.35C244.931 129.963 244.148 130.901 243.727 132.013L238.059 146.921C237.449 148.501 237.334 150.229 237.729 151.876C238.125 153.523 239.012 155.011 240.273 156.141L241.631 157.371C241.703 157.445 241.744 157.544 241.744 157.647C241.744 157.75 241.703 157.849 241.631 157.922C241.557 157.994 241.459 158.035 241.356 158.035C241.253 158.035 241.154 157.994 241.08 157.922L239.722 156.702C238.348 155.461 237.384 153.832 236.957 152.031C236.53 150.23 236.66 148.341 237.331 146.616L243.048 131.738C243.536 130.467 244.437 129.396 245.606 128.698C246.775 127.999 248.144 127.713 249.495 127.886C250.846 128.058 252.099 128.679 253.055 129.648C254.011 130.618 254.614 131.881 254.767 133.234L256.519 149.086C256.726 150.93 256.366 152.794 255.487 154.429C254.608 156.064 253.252 157.393 251.599 158.237L249.985 159.073C249.927 159.111 249.858 159.128 249.788 159.123Z" fill="#263238"/>
<path d="M254.669 136.776C254.575 136.777 254.484 136.743 254.414 136.682C254.343 136.62 254.297 136.534 254.285 136.441C254.056 135.166 253.409 134.003 252.444 133.137C251.48 132.27 250.255 131.75 248.962 131.659C246.777 131.384 243.806 132.072 242.615 134.946C242.598 134.997 242.571 135.044 242.535 135.084C242.499 135.123 242.455 135.156 242.406 135.178C242.357 135.201 242.305 135.213 242.251 135.214C242.197 135.215 242.144 135.205 242.094 135.185C242.044 135.165 241.999 135.135 241.961 135.097C241.924 135.058 241.894 135.013 241.875 134.963C241.855 134.913 241.846 134.859 241.849 134.805C241.851 134.752 241.864 134.699 241.887 134.651C242.552 133.364 243.597 132.313 244.88 131.64C246.163 130.966 247.621 130.704 249.058 130.888C250.495 131.071 251.841 131.692 252.913 132.666C253.985 133.64 254.732 134.92 255.053 136.333C255.067 136.434 255.041 136.536 254.98 136.617C254.919 136.698 254.828 136.752 254.728 136.766L254.669 136.776Z" fill="#263238"/>
<path d="M249.375 128.638C249.324 128.636 249.274 128.623 249.227 128.601C249.181 128.579 249.14 128.547 249.106 128.509C249.072 128.47 249.046 128.425 249.03 128.376C249.013 128.328 249.007 128.276 249.011 128.225C249.129 126.306 248.854 122.813 247.043 121.908C246.95 121.859 246.881 121.776 246.849 121.677C246.818 121.577 246.827 121.469 246.876 121.376C246.924 121.284 247.007 121.214 247.107 121.183C247.206 121.151 247.314 121.161 247.407 121.209C250.025 122.557 249.788 127.694 249.749 128.274C249.744 128.371 249.703 128.462 249.633 128.53C249.564 128.597 249.472 128.636 249.375 128.638Z" fill="#263238"/>
<path d="M242.241 157.765C242.143 158.503 241.68 159.044 241.198 158.975C240.716 158.906 240.401 158.276 240.499 157.548C240.598 156.82 241.05 156.269 241.533 156.338C242.015 156.407 242.33 157.037 242.241 157.765Z" fill="#263238"/>
<path d="M219.363 141.814C218.743 143.379 217.395 144.323 216.411 143.92C215.427 143.516 215.043 141.952 215.663 140.348C216.283 138.744 217.631 137.839 218.615 138.242C219.599 138.646 219.973 140.25 219.363 141.814Z" fill="#263238"/>
<path d="M216.126 140.801H216.047C215.946 140.779 215.857 140.719 215.799 140.632C215.742 140.545 215.722 140.44 215.742 140.338C217.041 133.873 222.414 123.61 227.147 120.658C227.19 120.621 227.24 120.594 227.294 120.578C227.349 120.562 227.406 120.558 227.462 120.567C227.518 120.575 227.572 120.596 227.619 120.627C227.667 120.658 227.707 120.699 227.737 120.747C227.767 120.795 227.787 120.849 227.794 120.905C227.801 120.962 227.796 121.019 227.78 121.073C227.763 121.127 227.734 121.177 227.696 121.219C227.659 121.261 227.612 121.295 227.56 121.317C222.984 124.2 217.779 134.109 216.51 140.476C216.493 140.566 216.446 140.648 216.376 140.707C216.306 140.767 216.218 140.8 216.126 140.801Z" fill="#263238"/>
<path d="M220.485 142.139C220.032 143.487 218.871 144.323 217.887 143.999C216.903 143.674 216.46 142.306 216.903 140.948C217.346 139.59 218.517 138.764 219.501 139.088C220.485 139.413 220.937 140.781 220.485 142.139Z" fill="white"/>
<path d="M220.554 142.277C219.954 143.939 218.842 145.071 218.084 144.796C217.326 144.52 217.198 142.946 217.808 141.273C218.418 139.6 219.521 138.478 220.278 138.754C221.036 139.029 221.164 140.604 220.554 142.277Z" fill="#263238"/>
<path d="M250.664 158.847C250.576 159.575 250.103 160.116 249.621 160.057C249.139 159.998 248.824 159.349 248.922 158.621C249.021 157.893 249.483 157.351 249.965 157.41C250.448 157.47 250.762 158.109 250.664 158.847Z" fill="#263238"/>
<path d="M306.457 116.21C309.743 125.194 301.006 129.711 295.279 142.946C289.552 156.18 303.367 171.964 324.572 172.308C345.778 172.653 346.447 152.343 343.16 137.77C339.874 123.197 346.742 120.825 345.286 109.696C343.416 95.0741 322.349 83.9942 313.985 97.416C306.545 96.7174 303.584 108.358 306.457 116.21Z" fill="#263238"/>
<path d="M369.266 237.144V236.003C369.246 235.455 369.108 234.918 368.862 234.428L365.3 227.402L361.128 226.615C358.176 229.793 361.128 236.13 361.128 236.13V237.144C361.128 237.974 361.4 238.782 361.9 239.444C362.401 240.106 363.104 240.587 363.903 240.814L364.464 240.982C365.041 241.134 365.647 241.149 366.231 241.026C366.816 240.902 367.363 240.644 367.83 240.271C368.297 239.898 368.67 239.421 368.919 238.878C369.168 238.335 369.287 237.741 369.266 237.144Z" fill="#FFC3BD"/>
<path d="M351.583 146.764L353.118 157.529L354.732 168.264C355.263 171.856 355.824 175.427 356.395 179.009L358.097 189.676L358.304 190.729C358.373 191.073 358.491 191.516 358.579 191.9L358.875 193.11L359.219 194.36C359.662 196.013 360.203 197.725 360.675 199.417C361.659 202.812 362.791 206.246 363.903 209.661C366.166 216.48 368.528 223.329 371.047 230.059L357.133 234.979L350.166 214.177C349.015 210.704 347.844 207.23 346.732 203.688C346.181 201.907 345.63 200.146 345.109 198.305L344.705 196.938L344.321 195.511C344.193 195.019 344.056 194.586 343.938 194.045L343.573 192.431L341.517 181.607C340.861 178.038 340.175 174.47 339.46 170.901L337.355 160.195L335.16 149.568L351.583 146.764Z" fill="#C1CEEC"/>
<path opacity="0.6" d="M351.583 146.764L353.118 157.529L354.732 168.264C355.263 171.856 355.824 175.427 356.395 179.009L358.097 189.676L358.304 190.729C358.373 191.073 358.491 191.516 358.579 191.9L358.875 193.11L359.219 194.36C359.662 196.013 360.203 197.725 360.675 199.417C361.659 202.812 362.791 206.246 363.903 209.661C366.166 216.48 368.528 223.329 371.047 230.059L357.133 234.979L350.166 214.177C349.015 210.704 347.844 207.23 346.732 203.688C346.181 201.907 345.63 200.146 345.109 198.305L344.705 196.938L344.321 195.511C344.193 195.019 344.056 194.586 343.938 194.045L343.573 192.431L341.517 181.607C340.861 178.038 340.175 174.47 339.46 170.901L337.355 160.195L335.16 149.568L351.583 146.764Z" fill="white"/>
<path d="M349.369 145.937C349.832 151.182 349.418 164.23 344.154 196.574H307.746C308.327 182.522 308.366 173.568 302.334 146.754C302.197 146.151 302.185 145.526 302.299 144.918C302.412 144.311 302.649 143.732 302.995 143.22C303.341 142.707 303.788 142.271 304.309 141.938C304.83 141.605 305.414 141.382 306.024 141.283C309.579 140.699 313.162 140.308 316.759 140.112C322.269 139.718 327.8 139.718 333.31 140.112C337.837 140.525 342.747 141.342 345.719 141.883C346.687 142.067 347.568 142.563 348.227 143.295C348.886 144.027 349.287 144.955 349.369 145.937Z" fill="#263238"/>
<path d="M318.363 121.475C319.406 126.798 320.449 136.56 316.72 140.112C316.72 140.112 321.384 145.78 328.528 145.78C335.672 145.78 333.281 140.112 333.281 140.112C327.377 138.695 327.495 134.286 328.528 130.154L318.363 121.475Z" fill="#FFC3BD"/>
<path opacity="0.2" d="M322.506 125.017L328.518 130.144C328.263 131.111 328.092 132.099 328.007 133.096C325.733 132.771 322.171 130.833 321.679 128.363C321.453 127.192 322.309 125.568 322.506 125.017Z" fill="black"/>
<path d="M312.095 111.025C313.483 119.822 313.886 123.571 318.787 127.684C326.166 133.873 336.666 130.242 337.935 121.209C339.077 113.081 336.607 100.053 327.613 97.3668C325.632 96.7641 323.529 96.6778 321.505 97.1161C319.481 97.5544 317.602 98.5027 316.048 99.871C314.493 101.239 313.314 102.982 312.622 104.934C311.93 106.886 311.749 108.983 312.095 111.025Z" fill="#FFC3BD"/>
<path d="M313.561 117.362C318.6 112.373 320.331 105.436 319.859 102.602C324.71 103.95 328.272 102.041 328.056 101.214C331.48 104.56 337.689 107.207 336.99 103.605C336.292 100.004 331.697 93.362 322.112 95.7334C312.528 98.1048 308.838 107.945 308.976 111.94C309.114 115.935 313.561 117.362 313.561 117.362Z" fill="#263238"/>
<path d="M324.72 112.019C324.789 112.747 325.222 113.288 325.704 113.249C326.186 113.209 326.501 112.579 326.432 111.861C326.363 111.143 325.92 110.592 325.448 110.631C324.976 110.67 324.72 111.3 324.72 112.019Z" fill="#263238"/>
<path d="M332.897 111.241C332.966 111.96 333.409 112.511 333.881 112.461C334.353 112.412 334.678 111.802 334.609 111.084C334.54 110.365 334.098 109.814 333.625 109.854C333.153 109.893 332.828 110.523 332.897 111.241Z" fill="#263238"/>
<path d="M333.428 109.913L335.111 109.253C335.111 109.253 334.344 110.69 333.428 109.913Z" fill="#263238"/>
<path d="M330.516 112.776C331.311 114.36 332.321 115.827 333.517 117.135C333.175 117.432 332.772 117.65 332.337 117.776C331.902 117.902 331.445 117.932 330.998 117.864L330.516 112.776Z" fill="#ED847E"/>
<path d="M327.337 121.032C327.695 121.056 328.053 121.056 328.41 121.032C328.466 121.025 328.516 120.996 328.551 120.952C328.586 120.908 328.603 120.852 328.597 120.796C328.596 120.768 328.589 120.741 328.577 120.716C328.564 120.691 328.547 120.669 328.526 120.652C328.504 120.634 328.479 120.621 328.453 120.614C328.426 120.606 328.398 120.605 328.371 120.609C327.475 120.713 326.568 120.605 325.722 120.293C324.876 119.982 324.115 119.477 323.5 118.818C323.462 118.783 323.413 118.764 323.362 118.762C323.31 118.76 323.26 118.777 323.22 118.809C323.18 118.841 323.152 118.886 323.142 118.936C323.132 118.987 323.14 119.039 323.165 119.084C323.698 119.668 324.34 120.141 325.056 120.475C325.773 120.81 326.548 120.999 327.337 121.032Z" fill="#263238"/>
<path d="M310.147 118.178C310.804 119.771 312.063 121.041 313.65 121.711C315.756 122.577 317.084 120.727 316.72 118.631C316.395 116.663 314.9 113.937 312.676 113.977C312.192 114 311.721 114.143 311.305 114.392C310.889 114.64 310.54 114.988 310.29 115.403C310.041 115.818 309.897 116.289 309.872 116.773C309.847 117.257 309.941 117.74 310.147 118.178Z" fill="#FFC3BD"/>
<path d="M321.916 108.24C322 108.27 322.092 108.273 322.179 108.248C322.265 108.223 322.342 108.172 322.398 108.102C323.638 106.577 326.166 106.725 326.186 106.725C326.298 106.73 326.407 106.692 326.492 106.619C326.576 106.546 326.629 106.442 326.639 106.331C326.644 106.275 326.638 106.219 326.621 106.165C326.604 106.112 326.576 106.062 326.539 106.02C326.502 105.978 326.457 105.943 326.407 105.919C326.356 105.895 326.301 105.881 326.245 105.878C326.127 105.878 323.244 105.701 321.738 107.571C321.668 107.659 321.635 107.771 321.646 107.883C321.657 107.995 321.712 108.098 321.797 108.171L321.916 108.24Z" fill="#263238"/>
<path d="M335.859 107.345C335.952 107.35 336.045 107.325 336.122 107.272C336.199 107.22 336.257 107.143 336.286 107.055C336.316 106.966 336.315 106.87 336.284 106.782C336.252 106.693 336.193 106.618 336.115 106.567C335.564 106.179 334.929 105.927 334.261 105.833C333.594 105.739 332.914 105.805 332.277 106.026C332.174 106.071 332.092 106.156 332.05 106.26C332.007 106.365 332.008 106.482 332.051 106.587C332.072 106.639 332.104 106.686 332.144 106.726C332.184 106.766 332.231 106.797 332.284 106.818C332.336 106.839 332.392 106.85 332.448 106.849C332.504 106.848 332.56 106.836 332.612 106.813C333.117 106.645 333.656 106.599 334.183 106.679C334.71 106.76 335.21 106.964 335.642 107.276C335.707 107.318 335.782 107.341 335.859 107.345Z" fill="#263238"/>
<path d="M366.776 400.281L375.839 399.848L373.152 379.381L364.1 379.824L366.776 400.281Z" fill="#FFC3BD"/>
<g opacity="0.2">
<path opacity="0.2" d="M373.153 379.391L374.54 389.939L365.477 390.372L364.09 379.824L373.153 379.391Z" fill="black"/>
</g>
<path d="M344.154 196.574C344.154 196.574 355.558 265.7 360.203 292.651C365.044 320.676 375.947 386.633 375.947 386.633L363.962 388.601C363.962 388.601 347.805 322.575 341.33 295.121C334.304 265.158 317.281 224.982 317.458 196.652L344.154 196.574Z" fill="#4A607A"/>
<path opacity="0.2" d="M325.842 217.789C324.13 215.299 320.833 211.806 318.304 208.933C320.597 226.546 327.16 246.984 333.153 266.231C334.747 251.569 333.842 229.331 325.842 217.789Z" fill="black"/>
<path d="M310.865 398.894H319.839L320.44 378.112H311.456L310.865 398.894Z" fill="#FFC3BD"/>
<path d="M320.262 397.536H310.176C310.002 397.534 309.833 397.596 309.7 397.71C309.568 397.825 309.482 397.983 309.458 398.156L308.307 406.126C308.286 406.329 308.308 406.533 308.371 406.727C308.435 406.92 308.538 407.098 308.674 407.249C308.81 407.4 308.977 407.521 309.163 407.604C309.349 407.687 309.55 407.73 309.753 407.73C313.266 407.661 314.959 407.455 319.396 407.455C322.122 407.455 327.761 407.74 331.529 407.74C335.298 407.74 335.465 404.021 333.93 403.676C326.895 402.171 324.09 400.085 321.758 398.087C321.338 397.736 320.81 397.541 320.262 397.536Z" fill="#263238"/>
<g opacity="0.2">
<path opacity="0.2" d="M320.43 378.122L320.125 388.837H311.151L311.456 378.122H320.43Z" fill="black"/>
</g>
<path d="M333.911 196.574C333.911 196.574 330.27 266.585 327.81 293.842C325.242 322.201 322.152 386.466 322.152 386.466H310.009C310.009 386.466 307.844 322.447 308.691 294.482C309.606 263.978 302.275 224.903 307.224 196.574H333.911Z" fill="#4A607A"/>
<path d="M308.956 386.899L323.195 387.165L323.411 378.486L308.897 379.391L308.956 386.899Z" fill="#263238"/>
<path d="M323.628 399.14C324.394 399.21 325.162 399.016 325.802 398.589C325.947 398.46 326.058 398.297 326.125 398.115C326.192 397.933 326.213 397.738 326.186 397.546C326.179 397.43 326.143 397.318 326.081 397.22C326.019 397.122 325.933 397.041 325.832 396.985C324.73 396.375 321.148 398.205 320.745 398.422C320.707 398.443 320.677 398.475 320.657 398.513C320.638 398.552 320.631 398.595 320.636 398.638C320.642 398.682 320.661 398.722 320.691 398.754C320.721 398.786 320.761 398.807 320.804 398.815C321.732 399.013 322.678 399.122 323.628 399.14ZM325.232 397.28C325.367 397.277 325.502 397.304 325.625 397.359C325.667 397.38 325.701 397.413 325.726 397.453C325.75 397.493 325.763 397.538 325.763 397.585C325.785 397.71 325.773 397.838 325.73 397.957C325.687 398.076 325.613 398.182 325.517 398.264C324.976 398.756 323.5 398.845 321.512 398.51C322.672 397.891 323.931 397.474 325.232 397.28Z" fill="#407BFF"/>
<path d="M320.843 398.825H320.932C322.004 398.343 324.12 396.404 323.953 395.391C323.953 395.145 323.746 394.85 323.156 394.791C322.944 394.766 322.73 394.786 322.527 394.849C322.324 394.911 322.136 395.016 321.975 395.155C320.853 396.089 320.646 398.51 320.636 398.608C320.633 398.646 320.639 398.684 320.654 398.719C320.67 398.753 320.694 398.783 320.725 398.805C320.762 398.821 320.803 398.828 320.843 398.825ZM322.988 395.184H323.116C323.5 395.184 323.529 395.371 323.529 395.43C323.638 396.04 322.201 397.556 321.109 398.215C321.193 397.197 321.592 396.231 322.25 395.45C322.456 395.275 322.718 395.18 322.988 395.184Z" fill="#407BFF"/>
<path d="M375.731 397.536H365.645C365.564 397.531 365.483 397.544 365.407 397.574C365.332 397.604 365.264 397.65 365.208 397.709C365.153 397.769 365.111 397.839 365.086 397.916C365.061 397.994 365.054 398.075 365.064 398.156L365.576 406.126C365.635 406.559 365.846 406.957 366.17 407.25C366.494 407.544 366.91 407.714 367.347 407.73C370.85 407.661 372.503 407.455 376.931 407.455C379.667 407.455 385.364 407.74 389.133 407.74C392.901 407.74 392.321 404.021 390.687 403.676C383.337 402.171 380.129 400.085 377.344 398.087C376.875 397.743 376.312 397.55 375.731 397.536Z" fill="#263238"/>
<path d="M379.096 399.14C379.866 399.21 380.636 399.016 381.28 398.589C381.424 398.459 381.533 398.296 381.6 398.114C381.667 397.933 381.689 397.738 381.664 397.546C381.655 397.429 381.617 397.317 381.554 397.219C381.49 397.121 381.403 397.041 381.3 396.985C380.198 396.375 376.626 398.205 376.223 398.422C376.183 398.441 376.151 398.473 376.13 398.511C376.109 398.55 376.1 398.594 376.105 398.638C376.113 398.681 376.133 398.72 376.162 398.751C376.192 398.782 376.23 398.805 376.272 398.815C377.201 399.013 378.146 399.122 379.096 399.14ZM380.7 397.28C380.835 397.274 380.97 397.301 381.093 397.359C381.136 397.38 381.172 397.412 381.198 397.452C381.224 397.492 381.239 397.538 381.241 397.585C381.258 397.71 381.244 397.837 381.202 397.955C381.159 398.073 381.088 398.179 380.995 398.264C380.444 398.756 378.968 398.845 376.98 398.51C378.141 397.892 379.399 397.476 380.7 397.28Z" fill="#407BFF"/>
<path d="M376.321 398.825H376.41C377.472 398.343 379.588 396.404 379.421 395.391C379.421 395.145 379.214 394.85 378.624 394.791C378.414 394.766 378.201 394.786 378 394.849C377.798 394.912 377.612 395.016 377.453 395.155C376.321 396.089 376.114 398.51 376.104 398.609C376.103 398.646 376.111 398.683 376.126 398.717C376.141 398.751 376.164 398.781 376.193 398.805C376.234 398.822 376.277 398.829 376.321 398.825ZM378.456 395.184H378.584C378.968 395.184 378.997 395.371 379.007 395.43C379.106 396.04 377.669 397.556 376.577 398.215C376.665 397.198 377.063 396.233 377.718 395.45C377.925 395.276 378.186 395.182 378.456 395.184Z" fill="#407BFF"/>
<path d="M362.958 389.162L377.02 386.899L375.435 379.381L361.502 382.668L362.958 389.162Z" fill="#263238"/>
<path d="M325.281 110.69L326.964 110.031C326.964 110.031 326.206 111.468 325.281 110.69Z" fill="#263238"/>
<path d="M307.156 194.438L306.231 197.705C306.103 197.951 306.398 198.217 306.821 198.217H344.331C344.666 198.217 344.931 198.05 344.951 197.843L345.286 194.586C345.286 194.36 345.02 194.163 344.666 194.163H307.756C307.64 194.153 307.525 194.173 307.419 194.221C307.314 194.27 307.223 194.344 307.156 194.438Z" fill="#263238"/>
<path d="M312.243 198.561H311.259C311.062 198.561 310.914 198.463 310.924 198.345L311.387 194.104C311.387 193.976 311.574 193.878 311.771 193.878H312.755C312.951 193.878 313.099 193.976 313.089 194.104L312.617 198.345C312.607 198.463 312.44 198.561 312.243 198.561Z" fill="#407BFF"/>
<path d="M341.556 198.561H340.572C340.376 198.561 340.218 198.463 340.238 198.345L340.7 194.104C340.7 193.976 340.887 193.878 341.084 193.878H342.068C342.265 193.878 342.412 193.976 342.403 194.104L341.94 198.345C341.92 198.463 341.753 198.561 341.556 198.561Z" fill="#407BFF"/>
<path d="M326.954 198.561H325.97C325.773 198.561 325.625 198.463 325.635 198.345L326.098 194.104C326.098 193.976 326.285 193.878 326.481 193.878H327.465C327.662 193.878 327.81 193.976 327.79 194.104L327.328 198.345C327.328 198.463 327.15 198.561 326.954 198.561Z" fill="#407BFF"/>
<path d="M315.146 139.817C309.429 140.338 300.691 139.256 300.956 148.023C301.222 156.791 299.52 180.013 299.972 190.886C300.425 201.759 297.591 272.165 302.177 292.573C302.983 296.164 332.602 295.702 336.184 295.357V292.12C336.184 292.12 357.704 289.227 363.027 290.152C362.565 277.891 350.648 215.958 350.186 198.561C349.723 181.164 351.682 151.27 351.564 146.527C351.445 141.785 342.019 139.698 336.243 139.817C337.522 144.097 334.698 152.136 330.181 161.1C319.072 150.276 315.795 144.904 315.146 139.817Z" fill="#D2E0FF"/>
<path opacity="0.7" d="M315.146 139.817C309.429 140.338 300.691 139.256 300.956 148.023C301.222 156.791 299.52 180.013 299.972 190.886C300.425 201.759 297.591 272.165 302.177 292.573C302.983 296.164 332.602 295.702 336.184 295.357V292.12C336.184 292.12 357.704 289.227 363.027 290.152C362.565 277.891 350.648 215.958 350.186 198.561C349.723 181.164 351.682 151.27 351.564 146.527C351.445 141.785 342.019 139.698 336.243 139.817C337.522 144.097 334.698 152.136 330.181 161.1C319.072 150.276 315.795 144.904 315.146 139.817Z" fill="white"/>
<path opacity="0.2" d="M304.263 160.608L300.602 163.196C300.317 170.773 299.933 179.265 299.894 185.828C303.298 178.301 305.217 167.437 304.263 160.608Z" fill="#407BFF"/>
<path d="M315.923 152.746C315.737 153.022 315.537 153.289 315.323 153.543L315.116 153.78L315.008 153.898L314.811 154.104L314.418 154.527L313.63 155.403C313.099 155.984 312.587 156.584 312.076 157.194C311.052 158.414 310.068 159.657 309.124 160.923C307.194 163.452 305.397 166.079 303.741 168.795C300.487 173.809 298.136 179.354 296.794 185.179C296.546 186.478 296.392 187.794 296.332 189.115C296.393 189.772 296.583 190.411 296.892 190.994C298.142 193.639 299.644 196.157 301.38 198.512C303.2 201.11 305.266 203.639 307.382 206.138C308.445 207.398 309.547 208.618 310.659 209.828C311.771 211.039 312.932 212.278 314.014 213.351L303.407 223.604C302.118 222.197 300.976 220.918 299.785 219.57L296.312 215.506C294.009 212.78 291.795 209.946 289.611 206.975C287.239 203.836 285.189 200.467 283.49 196.918C282.994 195.819 282.57 194.688 282.221 193.533C282.016 192.845 281.855 192.145 281.739 191.437C281.663 191.031 281.611 190.62 281.581 190.207C281.542 189.775 281.525 189.342 281.532 188.908C281.556 186.795 281.736 184.687 282.073 182.601C282.755 178.66 283.857 174.804 285.36 171.098C286.775 167.589 288.418 164.177 290.28 160.884C292.091 157.637 294.078 154.537 296.135 151.507C297.178 149.991 298.241 148.505 299.352 147.039L301.035 144.845L301.911 143.743L302.354 143.192L302.58 142.926L302.678 142.798L302.541 142.956C302.364 143.182 302.196 143.408 302.039 143.644L315.923 152.746Z" fill="#D7E3FF"/>
<path opacity="0.7" d="M315.923 152.746C315.737 153.022 315.537 153.289 315.323 153.543L315.116 153.78L315.008 153.898L314.811 154.104L314.418 154.527L313.63 155.403C313.099 155.984 312.587 156.584 312.076 157.194C311.052 158.414 310.068 159.657 309.124 160.923C307.194 163.452 305.397 166.079 303.741 168.795C300.487 173.809 298.136 179.354 296.794 185.179C296.546 186.478 296.392 187.794 296.332 189.115C296.393 189.772 296.583 190.411 296.892 190.994C298.142 193.639 299.644 196.157 301.38 198.512C303.2 201.11 305.266 203.639 307.382 206.138C308.445 207.398 309.547 208.618 310.659 209.828C311.771 211.039 312.932 212.278 314.014 213.351L303.407 223.604C302.118 222.197 300.976 220.918 299.785 219.57L296.312 215.506C294.009 212.78 291.795 209.946 289.611 206.975C287.239 203.836 285.189 200.467 283.49 196.918C282.994 195.819 282.57 194.688 282.221 193.533C282.016 192.845 281.855 192.145 281.739 191.437C281.663 191.031 281.611 190.62 281.581 190.207C281.542 189.775 281.525 189.342 281.532 188.908C281.556 186.795 281.736 184.687 282.073 182.601C282.755 178.66 283.857 174.804 285.36 171.098C286.775 167.589 288.418 164.177 290.28 160.884C292.091 157.637 294.078 154.537 296.135 151.507C297.178 149.991 298.241 148.505 299.352 147.039L301.035 144.845L301.911 143.743L302.354 143.192L302.58 142.926L302.678 142.798L302.541 142.956C302.364 143.182 302.196 143.408 302.039 143.644L315.923 152.746Z" fill="white"/>
<path opacity="0.3" d="M330.191 161.1C331.224 182.099 336.833 255.328 336.193 292.12L337.906 291.894C337.906 291.894 335.249 235.314 334.048 210.556C332.848 185.799 330.191 161.1 330.191 161.1Z" fill="#407BFF"/>
<path opacity="0.3" d="M313.188 213.528L302.678 224.903C302.678 228.721 300.012 236.357 307.077 239.132C314.142 241.907 314.329 221.774 313.188 213.528Z" fill="#407BFF"/>
<path opacity="0.3" d="M347.45 213.174L352.075 224.765C352.213 228.701 353.561 236.573 350.825 239.574C348.09 242.576 347.293 221.705 347.45 213.174Z" fill="#407BFF"/>
<path d="M335.967 168.412L347.509 168.333C347.625 168.338 347.739 168.318 347.846 168.274C347.952 168.231 348.048 168.165 348.127 168.08C348.205 167.996 348.265 167.896 348.301 167.787C348.337 167.677 348.349 167.562 348.336 167.447L347.696 161.976C347.658 161.739 347.539 161.523 347.36 161.363C347.181 161.204 346.952 161.111 346.712 161.1L335.16 161.169C335.046 161.166 334.932 161.187 334.826 161.231C334.72 161.275 334.625 161.342 334.547 161.425C334.469 161.509 334.409 161.609 334.372 161.717C334.336 161.826 334.322 161.941 334.334 162.055L334.973 167.536C335.014 167.774 335.134 167.99 335.315 168.15C335.496 168.309 335.726 168.401 335.967 168.412Z" fill="white" stroke="#407BFF" stroke-width="0.5" stroke-miterlimit="10"/>
</g>
<defs>
<filter id="filter0_dd_60_1818" x="-7" y="-7" width="506" height="506" filterUnits="userSpaceOnUse" color-interpolation-filters="sRGB">
<feFlood flood-opacity="0" result="BackgroundImageFix"/>
<feColorMatrix in="SourceAlpha" type="matrix" values="0 0 0 0 0 0 0 0 0 0 0 0 0 0 0 0 0 0 127 0" result="hardAlpha"/>
<feOffset dx="-2" dy="-2"/>
<feGaussianBlur stdDeviation="2.5"/>
<feColorMatrix type="matrix" values="0 0 0 0 0.0791667 0 0 0 0 0.114 0 0 0 0 0.2375 0 0 0 0.15 0"/>
<feBlend mode="normal" in2="BackgroundImageFix" result="effect1_dropShadow_60_1818"/>
<feColorMatrix in="SourceAlpha" type="matrix" values="0 0 0 0 0 0 0 0 0 0 0 0 0 0 0 0 0 0 127 0" result="hardAlpha"/>
<feOffset dx="2" dy="2"/>
<feGaussianBlur stdDeviation="2.5"/>
<feColorMatrix type="matrix" values="0 0 0 0 0.0784314 0 0 0 0 0.113725 0 0 0 0 0.239216 0 0 0 0.15 0"/>
<feBlend mode="normal" in2="effect1_dropShadow_60_1818" result="effect2_dropShadow_60_1818"/>
<feBlend mode="normal" in="SourceGraphic" in2="effect2_dropShadow_60_1818" result="shape"/>
</filter>
</defs>
</svg>
