<svg width="32" height="32" xmlns="http://www.w3.org/2000/svg"><g fill="none" fill-rule="evenodd"><path d="M14.95 17.678l.178-.178L28.347 4.28a1.001 1.001 0 011.417-.002.998.998 0 010 1.414L15.656 19.8a.994.994 0 01-1.43-.017l-3.52-3.519a1 1 0 111.414-1.414l2.829 2.829z" fill="#2A2630"/><path d="M13.497.197C4.769 1.579-1.185 9.775.197 18.503c1.382 8.728 9.578 14.682 18.306 13.3a16.006 16.006 0 0013.403-14.036c.156-1.41.123-2.843-.103-4.27a1 1 0 10-1.975.313c.198 1.25.226 2.504.09 3.738a14.006 14.006 0 01-11.728 12.28c-7.637 1.21-14.808-4.001-16.018-11.638C.962 10.553 6.173 3.382 13.81 2.172a13.929 13.929 0 018.146 1.157 1 1 0 00.853-1.81A15.928 15.928 0 0013.497.197z" fill="#95909E" fill-rule="nonzero"/></g></svg>